<svg id="svg" version="1.1" xmlns="http://www.w3.org/2000/svg" xmlns:xlink="http://www.w3.org/1999/xlink" width="100" height="100" viewBox="0, 0, 400,412"><g id="svgg"><path id="path0" d="M199.472 55.900 C 198.125 56.923,193.569 61.942,189.758 66.600 C 186.174 70.980,177.681 83.333,175.182 87.800 C 174.689 88.680,173.955 89.940,173.549 90.600 C 173.143 91.260,171.339 94.770,169.540 98.400 C 167.741 102.030,165.947 105.639,165.554 106.420 C 162.964 111.562,157.502 126.386,155.555 133.556 C 155.100 135.230,154.577 137.140,154.392 137.800 C 152.611 144.149,150.301 154.558,149.599 159.400 C 147.898 171.118,147.858 171.462,147.205 180.000 C 146.995 182.750,146.818 186.495,146.812 188.323 C 146.799 192.048,146.711 192.186,142.200 195.581 C 137.967 198.766,131.448 205.698,126.736 212.024 C 116.598 225.635,111.069 248.076,114.162 263.064 C 114.260 263.539,114.467 264.799,114.622 265.864 C 114.778 266.929,115.130 268.430,115.404 269.200 C 115.679 269.970,116.126 271.410,116.397 272.400 C 117.064 274.839,118.675 278.558,119.130 278.710 C 119.333 278.778,119.780 278.134,120.122 277.280 C 124.046 267.471,137.776 252.385,148.961 245.594 C 152.352 243.534,152.355 243.537,154.987 254.508 C 155.408 256.263,157.376 261.568,158.211 263.200 C 159.875 266.452,156.086 266.187,202.646 266.307 L 244.291 266.414 245.511 265.166 C 247.436 263.198,249.898 256.053,251.599 247.500 C 252.195 244.504,252.401 244.525,257.803 248.155 C 268.368 255.254,278.044 266.042,283.586 276.900 C 285.118 279.902,285.418 280.096,286.058 278.500 C 286.301 277.895,286.662 277.040,286.862 276.600 C 290.300 268.999,291.973 253.886,290.549 243.271 C 289.767 237.433,287.052 228.413,284.750 224.000 C 284.118 222.790,283.601 221.668,283.601 221.508 C 283.600 221.347,282.970 220.231,282.200 219.027 C 281.430 217.823,280.800 216.719,280.800 216.573 C 280.800 216.204,278.310 212.810,275.246 209.000 C 271.820 204.742,267.393 200.419,262.562 196.614 C 257.334 192.497,257.758 193.452,257.448 185.105 C 257.299 181.087,257.094 176.900,256.993 175.800 C 256.107 166.149,255.352 160.592,253.921 153.200 C 253.474 150.890,252.959 148.190,252.775 147.200 C 252.479 145.605,250.826 139.156,249.084 132.800 C 246.507 123.401,242.159 112.022,237.348 102.085 C 235.507 98.281,234.000 95.078,234.000 94.965 C 234.000 94.853,233.370 93.777,232.600 92.573 C 231.830 91.369,231.200 90.272,231.200 90.134 C 231.200 88.763,219.957 72.293,214.450 65.597 C 205.607 54.847,203.042 53.186,199.472 55.900 M208.828 142.605 C 230.491 148.202,230.666 180.320,209.067 186.381 C 191.399 191.339,175.541 175.448,180.721 157.978 C 184.271 146.006,196.373 139.388,208.828 142.605 M157.000 289.906 C 156.598 290.202,156.683 302.366,157.537 366.198 C 157.767 383.363,157.777 395.270,157.561 395.672 C 157.363 396.044,157.200 398.699,157.200 401.574 L 157.200 406.800 168.000 406.800 L 178.800 406.800 178.800 403.386 C 178.800 401.168,178.606 399.661,178.245 399.086 C 177.654 398.141,177.655 398.181,176.822 332.000 C 176.613 315.390,176.320 299.055,176.172 295.700 L 175.903 289.600 166.652 289.606 C 161.563 289.609,157.220 289.744,157.000 289.906 M190.970 311.093 C 191.104 322.922,191.418 342.770,191.667 355.200 C 191.918 367.712,192.004 385.433,191.860 394.900 L 191.599 412.000 202.399 412.000 L 213.200 412.000 213.200 406.344 C 213.200 401.932,213.075 400.591,212.632 400.244 C 212.030 399.774,211.810 390.476,210.775 322.000 C 210.541 306.490,210.316 292.900,210.275 291.800 L 210.200 289.800 200.463 289.693 L 190.726 289.586 190.970 311.093 M224.926 290.248 C 224.790 290.604,224.792 298.389,224.931 307.548 C 225.694 357.743,225.996 398.164,225.611 398.549 C 225.385 398.775,225.200 400.724,225.200 402.880 L 225.200 406.800 227.400 406.800 C 228.610 406.800,229.600 406.620,229.600 406.400 C 229.600 406.146,232.733 406.000,238.200 406.000 L 246.800 406.000 246.800 400.649 C 246.800 396.667,246.663 395.184,246.265 394.854 C 245.700 394.385,245.692 393.954,244.806 320.000 C 244.608 303.390,244.435 289.755,244.422 289.700 C 244.299 289.149,225.141 289.687,224.926 290.248 " stroke="none" fill="#fcfbfa" fill-rule="evenodd"></path><path id="path1" d="M178.500 0.274 C 176.465 0.360,174.800 0.603,174.800 0.815 C 174.800 1.030,173.383 1.200,171.600 1.200 C 169.733 1.200,168.400 1.367,168.400 1.600 C 168.400 1.820,167.511 2.000,166.424 2.000 C 165.337 2.000,164.336 2.180,164.200 2.400 C 164.064 2.620,162.973 2.800,161.776 2.800 C 160.579 2.800,159.600 2.980,159.600 3.200 C 159.600 3.420,158.801 3.600,157.824 3.600 C 156.847 3.600,155.936 3.780,155.800 4.000 C 155.664 4.220,154.843 4.400,153.976 4.400 C 153.109 4.400,152.400 4.580,152.400 4.800 C 152.400 5.020,151.680 5.200,150.800 5.200 C 149.920 5.200,149.200 5.380,149.200 5.600 C 149.200 5.820,148.581 6.000,147.824 6.000 C 147.067 6.000,146.336 6.180,146.200 6.400 C 146.064 6.620,145.423 6.800,144.776 6.800 C 144.129 6.800,143.600 6.980,143.600 7.200 C 143.600 7.420,142.880 7.600,142.000 7.600 C 141.120 7.600,140.400 7.780,140.400 8.000 C 140.400 8.220,139.860 8.400,139.200 8.400 C 138.540 8.400,138.000 8.580,138.000 8.800 C 138.000 9.020,137.460 9.200,136.800 9.200 C 136.140 9.200,135.600 9.380,135.600 9.600 C 135.600 9.820,135.060 10.000,134.400 10.000 C 133.740 10.000,133.200 10.180,133.200 10.400 C 133.200 10.620,132.660 10.800,132.000 10.800 C 131.340 10.800,130.800 10.980,130.800 11.200 C 130.800 11.420,130.440 11.600,130.000 11.600 C 129.560 11.600,129.200 11.780,129.200 12.000 C 129.200 12.220,128.660 12.400,128.000 12.400 C 127.340 12.400,126.800 12.580,126.800 12.800 C 126.800 13.020,126.440 13.200,126.000 13.200 C 125.560 13.200,125.200 13.380,125.200 13.600 C 125.200 13.820,124.660 14.000,124.000 14.000 C 123.340 14.000,122.800 14.180,122.800 14.400 C 122.800 14.620,122.440 14.800,122.000 14.800 C 121.560 14.800,121.200 14.980,121.200 15.200 C 121.200 15.420,120.761 15.600,120.224 15.600 C 119.687 15.600,119.136 15.780,119.000 16.000 C 118.864 16.220,118.403 16.400,117.976 16.400 C 117.549 16.400,117.200 16.580,117.200 16.800 C 117.200 17.020,116.840 17.200,116.400 17.200 C 115.960 17.200,115.600 17.380,115.600 17.600 C 115.600 17.820,115.240 18.000,114.800 18.000 C 114.360 18.000,114.000 18.180,114.000 18.400 C 114.000 18.620,113.640 18.800,113.200 18.800 C 112.760 18.800,112.400 18.980,112.400 19.200 C 112.400 19.420,112.040 19.600,111.600 19.600 C 111.160 19.600,110.800 19.780,110.800 20.000 C 110.800 20.220,110.440 20.400,110.000 20.400 C 109.560 20.400,109.200 20.580,109.200 20.800 C 109.200 21.020,108.840 21.200,108.400 21.200 C 107.960 21.200,107.600 21.380,107.600 21.600 C 107.600 21.820,107.240 22.000,106.800 22.000 C 106.360 22.000,106.000 22.180,106.000 22.400 C 106.000 22.620,105.640 22.800,105.200 22.800 C 104.760 22.800,104.400 22.980,104.400 23.200 C 104.400 23.420,104.040 23.600,103.600 23.600 C 103.160 23.600,102.800 23.780,102.800 24.000 C 102.800 24.220,102.480 24.400,102.088 24.400 C 101.697 24.400,101.117 24.760,100.800 25.200 C 100.483 25.640,99.903 26.000,99.512 26.000 C 99.120 26.000,98.800 26.180,98.800 26.400 C 98.800 26.620,98.440 26.800,98.000 26.800 C 97.560 26.800,97.200 26.980,97.200 27.200 C 97.200 27.420,96.964 27.600,96.675 27.600 C 96.387 27.600,95.764 27.960,95.292 28.400 C 94.820 28.840,94.196 29.200,93.905 29.200 C 93.614 29.200,93.117 29.560,92.800 30.000 C 92.483 30.440,91.986 30.800,91.695 30.800 C 91.404 30.800,90.780 31.160,90.308 31.600 C 89.836 32.040,89.213 32.400,88.925 32.400 C 88.636 32.400,88.400 32.580,88.400 32.800 C 88.400 33.020,88.157 33.200,87.859 33.200 C 87.562 33.200,86.754 33.740,86.063 34.400 C 85.372 35.060,84.575 35.600,84.292 35.600 C 84.009 35.600,83.517 35.960,83.200 36.400 C 82.883 36.840,82.420 37.200,82.171 37.200 C 81.922 37.200,81.154 37.740,80.463 38.400 C 79.772 39.060,79.047 39.600,78.852 39.600 C 78.656 39.600,77.755 40.320,76.848 41.200 C 75.941 42.080,75.005 42.800,74.768 42.800 C 74.531 42.800,73.646 43.520,72.800 44.400 C 71.954 45.280,71.084 46.000,70.866 46.000 C 70.648 46.000,69.413 47.035,68.121 48.300 C 66.829 49.565,65.072 51.128,64.217 51.773 C 62.202 53.293,53.293 62.202,51.773 64.217 C 51.128 65.072,49.565 66.829,48.300 68.121 C 47.035 69.413,46.000 70.648,46.000 70.866 C 46.000 71.084,45.280 71.954,44.400 72.800 C 43.520 73.646,42.800 74.531,42.800 74.768 C 42.800 75.005,42.080 75.941,41.200 76.848 C 40.320 77.755,39.600 78.656,39.600 78.852 C 39.600 79.047,39.060 79.772,38.400 80.463 C 37.740 81.154,37.200 81.922,37.200 82.171 C 37.200 82.420,36.840 82.883,36.400 83.200 C 35.960 83.517,35.600 84.009,35.600 84.292 C 35.600 84.575,35.060 85.372,34.400 86.063 C 33.740 86.754,33.200 87.562,33.200 87.859 C 33.200 88.157,33.020 88.400,32.800 88.400 C 32.580 88.400,32.400 88.636,32.400 88.925 C 32.400 89.213,32.040 89.836,31.600 90.308 C 31.160 90.780,30.800 91.404,30.800 91.695 C 30.800 91.986,30.440 92.483,30.000 92.800 C 29.560 93.117,29.200 93.614,29.200 93.905 C 29.200 94.196,28.840 94.820,28.400 95.292 C 27.960 95.764,27.600 96.387,27.600 96.675 C 27.600 96.964,27.420 97.200,27.200 97.200 C 26.980 97.200,26.800 97.560,26.800 98.000 C 26.800 98.440,26.620 98.800,26.400 98.800 C 26.180 98.800,26.000 99.120,26.000 99.512 C 26.000 99.903,25.640 100.483,25.200 100.800 C 24.760 101.117,24.400 101.697,24.400 102.088 C 24.400 102.480,24.220 102.800,24.000 102.800 C 23.780 102.800,23.600 103.160,23.600 103.600 C 23.600 104.040,23.420 104.400,23.200 104.400 C 22.980 104.400,22.800 104.760,22.800 105.200 C 22.800 105.640,22.620 106.000,22.400 106.000 C 22.180 106.000,22.000 106.360,22.000 106.800 C 22.000 107.240,21.820 107.600,21.600 107.600 C 21.380 107.600,21.200 107.960,21.200 108.400 C 21.200 108.840,21.020 109.200,20.800 109.200 C 20.580 109.200,20.400 109.560,20.400 110.000 C 20.400 110.440,20.220 110.800,20.000 110.800 C 19.780 110.800,19.600 111.160,19.600 111.600 C 19.600 112.040,19.420 112.400,19.200 112.400 C 18.980 112.400,18.800 112.760,18.800 113.200 C 18.800 113.640,18.620 114.000,18.400 114.000 C 18.180 114.000,18.000 114.360,18.000 114.800 C 18.000 115.240,17.820 115.600,17.600 115.600 C 17.380 115.600,17.200 115.960,17.200 116.400 C 17.200 116.840,17.020 117.200,16.800 117.200 C 16.580 117.200,16.400 117.549,16.400 117.976 C 16.400 118.403,16.220 118.864,16.000 119.000 C 15.780 119.136,15.600 119.687,15.600 120.224 C 15.600 120.761,15.420 121.200,15.200 121.200 C 14.980 121.200,14.800 121.560,14.800 122.000 C 14.800 122.440,14.620 122.800,14.400 122.800 C 14.180 122.800,14.000 123.340,14.000 124.000 C 14.000 124.660,13.820 125.200,13.600 125.200 C 13.380 125.200,13.200 125.560,13.200 126.000 C 13.200 126.440,13.020 126.800,12.800 126.800 C 12.580 126.800,12.400 127.340,12.400 128.000 C 12.400 128.660,12.220 129.200,12.000 129.200 C 11.780 129.200,11.600 129.560,11.600 130.000 C 11.600 130.440,11.420 130.800,11.200 130.800 C 10.980 130.800,10.800 131.340,10.800 132.000 C 10.800 132.660,10.620 133.200,10.400 133.200 C 10.180 133.200,10.000 133.740,10.000 134.400 C 10.000 135.060,9.820 135.600,9.600 135.600 C 9.380 135.600,9.200 136.140,9.200 136.800 C 9.200 137.460,9.020 138.000,8.800 138.000 C 8.580 138.000,8.400 138.540,8.400 139.200 C 8.400 139.860,8.220 140.400,8.000 140.400 C 7.780 140.400,7.600 141.120,7.600 142.000 C 7.600 142.880,7.420 143.600,7.200 143.600 C 6.980 143.600,6.800 144.129,6.800 144.776 C 6.800 145.423,6.620 146.064,6.400 146.200 C 6.180 146.336,6.000 147.067,6.000 147.824 C 6.000 148.581,5.820 149.200,5.600 149.200 C 5.380 149.200,5.200 149.920,5.200 150.800 C 5.200 151.680,5.020 152.400,4.800 152.400 C 4.580 152.400,4.400 153.109,4.400 153.976 C 4.400 154.843,4.220 155.664,4.000 155.800 C 3.780 155.936,3.600 156.847,3.600 157.824 C 3.600 158.801,3.420 159.600,3.200 159.600 C 2.980 159.600,2.800 160.579,2.800 161.776 C 2.800 162.973,2.620 164.064,2.400 164.200 C 2.180 164.336,2.000 165.337,2.000 166.424 C 2.000 167.511,1.820 168.400,1.600 168.400 C 1.367 168.400,1.200 169.722,1.200 171.567 C 1.200 173.744,1.044 174.785,0.700 174.900 C -0.032 175.144,-0.032 224.856,0.700 225.100 C 1.044 225.215,1.200 226.256,1.200 228.433 C 1.200 230.278,1.367 231.600,1.600 231.600 C 1.820 231.600,2.000 232.489,2.000 233.576 C 2.000 234.663,2.180 235.664,2.400 235.800 C 2.620 235.936,2.800 237.027,2.800 238.224 C 2.800 239.421,2.980 240.400,3.200 240.400 C 3.420 240.400,3.600 241.199,3.600 242.176 C 3.600 243.153,3.780 244.064,4.000 244.200 C 4.220 244.336,4.400 245.157,4.400 246.024 C 4.400 246.891,4.580 247.600,4.800 247.600 C 5.020 247.600,5.200 248.320,5.200 249.200 C 5.200 250.080,5.380 250.800,5.600 250.800 C 5.820 250.800,6.000 251.419,6.000 252.176 C 6.000 252.933,6.180 253.664,6.400 253.800 C 6.620 253.936,6.800 254.577,6.800 255.224 C 6.800 255.871,6.980 256.400,7.200 256.400 C 7.420 256.400,7.600 257.120,7.600 258.000 C 7.600 258.880,7.780 259.600,8.000 259.600 C 8.220 259.600,8.400 260.140,8.400 260.800 C 8.400 261.460,8.580 262.000,8.800 262.000 C 9.020 262.000,9.200 262.540,9.200 263.200 C 9.200 263.860,9.380 264.400,9.600 264.400 C 9.820 264.400,10.000 264.940,10.000 265.600 C 10.000 266.260,10.180 266.800,10.400 266.800 C 10.620 266.800,10.800 267.340,10.800 268.000 C 10.800 268.660,10.980 269.200,11.200 269.200 C 11.420 269.200,11.600 269.560,11.600 270.000 C 11.600 270.440,11.780 270.800,12.000 270.800 C 12.220 270.800,12.400 271.340,12.400 272.000 C 12.400 272.660,12.580 273.200,12.800 273.200 C 13.020 273.200,13.200 273.560,13.200 274.000 C 13.200 274.440,13.380 274.800,13.600 274.800 C 13.820 274.800,14.000 275.340,14.000 276.000 C 14.000 276.660,14.180 277.200,14.400 277.200 C 14.620 277.200,14.800 277.560,14.800 278.000 C 14.800 278.440,14.980 278.800,15.200 278.800 C 15.420 278.800,15.600 279.239,15.600 279.776 C 15.600 280.313,15.780 280.864,16.000 281.000 C 16.220 281.136,16.400 281.597,16.400 282.024 C 16.400 282.451,16.580 282.800,16.800 282.800 C 17.020 282.800,17.200 283.160,17.200 283.600 C 17.200 284.040,17.380 284.400,17.600 284.400 C 17.820 284.400,18.000 284.760,18.000 285.200 C 18.000 285.640,18.180 286.000,18.400 286.000 C 18.620 286.000,18.800 286.360,18.800 286.800 C 18.800 287.240,18.980 287.600,19.200 287.600 C 19.420 287.600,19.600 287.960,19.600 288.400 C 19.600 288.840,19.780 289.200,20.000 289.200 C 20.220 289.200,20.400 289.560,20.400 290.000 C 20.400 290.440,20.580 290.800,20.800 290.800 C 21.020 290.800,21.200 291.160,21.200 291.600 C 21.200 292.040,21.380 292.400,21.600 292.400 C 21.820 292.400,22.000 292.760,22.000 293.200 C 22.000 293.640,22.180 294.000,22.400 294.000 C 22.620 294.000,22.800 294.360,22.800 294.800 C 22.800 295.240,22.980 295.600,23.200 295.600 C 23.420 295.600,23.600 295.960,23.600 296.400 C 23.600 296.840,23.780 297.200,24.000 297.200 C 24.220 297.200,24.400 297.520,24.400 297.912 C 24.400 298.303,24.760 298.883,25.200 299.200 C 25.640 299.517,26.000 300.097,26.000 300.488 C 26.000 300.880,26.180 301.200,26.400 301.200 C 26.620 301.200,26.800 301.560,26.800 302.000 C 26.800 302.440,26.980 302.800,27.200 302.800 C 27.420 302.800,27.600 303.036,27.600 303.325 C 27.600 303.613,27.960 304.236,28.400 304.708 C 28.840 305.180,29.200 305.804,29.200 306.095 C 29.200 306.386,29.560 306.883,30.000 307.200 C 30.440 307.517,30.800 308.014,30.800 308.305 C 30.800 308.596,31.160 309.220,31.600 309.692 C 32.040 310.164,32.400 310.787,32.400 311.075 C 32.400 311.364,32.580 311.600,32.800 311.600 C 33.020 311.600,33.200 311.843,33.200 312.141 C 33.200 312.438,33.740 313.246,34.400 313.937 C 35.060 314.628,35.600 315.425,35.600 315.708 C 35.600 315.991,35.960 316.483,36.400 316.800 C 36.840 317.117,37.200 317.580,37.200 317.829 C 37.200 318.078,37.740 318.846,38.400 319.537 C 39.060 320.228,39.600 320.953,39.600 321.148 C 39.600 321.344,40.320 322.245,41.200 323.152 C 42.080 324.059,42.800 324.995,42.800 325.232 C 42.800 325.469,43.520 326.354,44.400 327.200 C 45.280 328.046,46.000 328.916,46.000 329.134 C 46.000 329.352,47.035 330.587,48.300 331.879 C 49.565 333.171,51.128 334.928,51.773 335.783 C 53.293 337.798,62.202 346.707,64.217 348.227 C 65.072 348.872,66.829 350.435,68.121 351.700 C 69.413 352.965,70.648 354.000,70.866 354.000 C 71.084 354.000,71.954 354.720,72.800 355.600 C 73.646 356.480,74.531 357.200,74.768 357.200 C 75.005 357.200,75.941 357.920,76.848 358.800 C 77.755 359.680,78.656 360.400,78.852 360.400 C 79.047 360.400,79.772 360.940,80.463 361.600 C 81.154 362.260,81.922 362.800,82.171 362.800 C 82.420 362.800,82.883 363.160,83.200 363.600 C 83.517 364.040,84.009 364.400,84.292 364.400 C 84.575 364.400,85.372 364.940,86.063 365.600 C 86.754 366.260,87.562 366.800,87.859 366.800 C 88.157 366.800,88.400 366.980,88.400 367.200 C 88.400 367.420,88.636 367.600,88.925 367.600 C 89.213 367.600,89.836 367.960,90.308 368.400 C 90.780 368.840,91.404 369.200,91.695 369.200 C 91.986 369.200,92.483 369.560,92.800 370.000 C 93.117 370.440,93.614 370.800,93.905 370.800 C 94.196 370.800,94.820 371.160,95.292 371.600 C 95.764 372.040,96.387 372.400,96.675 372.400 C 96.964 372.400,97.200 372.580,97.200 372.800 C 97.200 373.020,97.560 373.200,98.000 373.200 C 98.440 373.200,98.800 373.380,98.800 373.600 C 98.800 373.820,99.120 374.000,99.512 374.000 C 99.903 374.000,100.483 374.360,100.800 374.800 C 101.117 375.240,101.697 375.600,102.088 375.600 C 102.480 375.600,102.800 375.780,102.800 376.000 C 102.800 376.220,103.160 376.400,103.600 376.400 C 104.040 376.400,104.400 376.580,104.400 376.800 C 104.400 377.020,104.760 377.200,105.200 377.200 C 105.640 377.200,106.000 377.380,106.000 377.600 C 106.000 377.820,106.360 378.000,106.800 378.000 C 107.240 378.000,107.600 378.180,107.600 378.400 C 107.600 378.620,107.960 378.800,108.400 378.800 C 108.840 378.800,109.200 378.980,109.200 379.200 C 109.200 379.420,109.560 379.600,110.000 379.600 C 110.440 379.600,110.800 379.780,110.800 380.000 C 110.800 380.220,111.160 380.400,111.600 380.400 C 112.040 380.400,112.400 380.580,112.400 380.800 C 112.400 381.020,112.760 381.200,113.200 381.200 C 113.640 381.200,114.000 381.380,114.000 381.600 C 114.000 381.820,114.360 382.000,114.800 382.000 C 115.240 382.000,115.600 382.180,115.600 382.400 C 115.600 382.620,115.960 382.800,116.400 382.800 C 116.840 382.800,117.200 382.980,117.200 383.200 C 117.200 383.420,117.549 383.600,117.976 383.600 C 118.403 383.600,118.864 383.780,119.000 384.000 C 119.136 384.220,119.687 384.400,120.224 384.400 C 120.761 384.400,121.200 384.580,121.200 384.800 C 121.200 385.020,121.560 385.200,122.000 385.200 C 122.440 385.200,122.800 385.380,122.800 385.600 C 122.800 385.820,123.340 386.000,124.000 386.000 C 124.660 386.000,125.200 386.180,125.200 386.400 C 125.200 386.620,125.560 386.800,126.000 386.800 C 126.440 386.800,126.800 386.980,126.800 387.200 C 126.800 387.420,127.340 387.600,128.000 387.600 C 128.660 387.600,129.200 387.780,129.200 388.000 C 129.200 388.220,129.560 388.400,130.000 388.400 C 130.440 388.400,130.800 388.580,130.800 388.800 C 130.800 389.020,131.340 389.200,132.000 389.200 C 132.660 389.200,133.200 389.380,133.200 389.600 C 133.200 389.820,133.740 390.000,134.400 390.000 C 135.060 390.000,135.600 390.180,135.600 390.400 C 135.600 390.620,136.140 390.800,136.800 390.800 C 137.460 390.800,138.000 390.980,138.000 391.200 C 138.000 391.420,138.540 391.600,139.200 391.600 C 139.860 391.600,140.400 391.780,140.400 392.000 C 140.400 392.220,141.120 392.400,142.000 392.400 C 142.880 392.400,143.600 392.580,143.600 392.800 C 143.600 393.020,144.129 393.200,144.776 393.200 C 145.423 393.200,146.064 393.380,146.200 393.600 C 146.336 393.820,147.067 394.000,147.824 394.000 C 148.581 394.000,149.200 394.180,149.200 394.400 C 149.200 394.620,149.920 394.800,150.800 394.800 C 151.680 394.800,152.400 394.980,152.400 395.200 C 152.400 395.420,153.109 395.600,153.976 395.600 C 154.843 395.600,155.664 395.780,155.800 396.000 C 155.936 396.220,156.335 396.400,156.687 396.400 C 157.266 396.400,157.301 395.016,157.057 381.700 C 156.909 373.615,156.621 353.860,156.416 337.800 C 156.212 321.740,155.918 304.352,155.762 299.161 C 155.578 293.006,155.618 289.636,155.878 289.475 C 156.098 289.340,160.882 289.104,166.509 288.952 L 176.740 288.676 176.954 290.038 C 177.072 290.787,177.257 300.940,177.367 312.600 C 177.752 353.768,178.383 396.618,178.625 398.100 C 178.859 399.531,178.941 399.600,180.412 399.600 C 181.259 399.600,182.064 399.780,182.200 400.000 C 182.342 400.229,184.424 400.400,187.084 400.400 L 191.722 400.400 191.434 391.300 C 191.275 386.295,190.978 369.780,190.773 354.600 C 190.568 339.420,190.284 318.612,190.140 308.361 C 189.966 295.890,190.014 289.639,190.286 289.471 C 191.563 288.681,210.707 288.678,210.958 289.468 C 211.188 290.191,211.555 312.735,212.364 375.800 C 212.528 388.560,212.802 399.315,212.974 399.700 C 213.324 400.487,217.345 400.737,217.800 400.000 C 217.936 399.780,219.684 399.600,221.684 399.600 L 225.321 399.600 225.063 378.700 C 224.276 315.160,224.070 289.770,224.338 289.502 C 224.503 289.337,229.219 289.157,234.819 289.101 L 245.000 289.000 245.256 302.000 C 245.397 309.150,245.714 332.550,245.960 354.000 C 246.207 375.450,246.516 393.585,246.649 394.300 C 246.866 395.476,247.600 396.170,247.600 395.200 C 247.600 394.980,248.320 394.800,249.200 394.800 C 250.080 394.800,250.800 394.620,250.800 394.400 C 250.800 394.180,251.419 394.000,252.176 394.000 C 252.933 394.000,253.664 393.820,253.800 393.600 C 253.936 393.380,254.577 393.200,255.224 393.200 C 255.871 393.200,256.400 393.020,256.400 392.800 C 256.400 392.580,257.120 392.400,258.000 392.400 C 258.880 392.400,259.600 392.220,259.600 392.000 C 259.600 391.780,260.140 391.600,260.800 391.600 C 261.460 391.600,262.000 391.420,262.000 391.200 C 262.000 390.980,262.540 390.800,263.200 390.800 C 263.860 390.800,264.400 390.620,264.400 390.400 C 264.400 390.180,264.940 390.000,265.600 390.000 C 266.260 390.000,266.800 389.820,266.800 389.600 C 266.800 389.380,267.340 389.200,268.000 389.200 C 268.660 389.200,269.200 389.020,269.200 388.800 C 269.200 388.580,269.560 388.400,270.000 388.400 C 270.440 388.400,270.800 388.220,270.800 388.000 C 270.800 387.780,271.340 387.600,272.000 387.600 C 272.660 387.600,273.200 387.420,273.200 387.200 C 273.200 386.980,273.560 386.800,274.000 386.800 C 274.440 386.800,274.800 386.620,274.800 386.400 C 274.800 386.180,275.340 386.000,276.000 386.000 C 276.660 386.000,277.200 385.820,277.200 385.600 C 277.200 385.380,277.560 385.200,278.000 385.200 C 278.440 385.200,278.800 385.020,278.800 384.800 C 278.800 384.580,279.239 384.400,279.776 384.400 C 280.313 384.400,280.864 384.220,281.000 384.000 C 281.136 383.780,281.597 383.600,282.024 383.600 C 282.451 383.600,282.800 383.420,282.800 383.200 C 282.800 382.980,283.160 382.800,283.600 382.800 C 284.040 382.800,284.400 382.620,284.400 382.400 C 284.400 382.180,284.760 382.000,285.200 382.000 C 285.640 382.000,286.000 381.820,286.000 381.600 C 286.000 381.380,286.360 381.200,286.800 381.200 C 287.240 381.200,287.600 381.020,287.600 380.800 C 287.600 380.580,287.960 380.400,288.400 380.400 C 288.840 380.400,289.200 380.220,289.200 380.000 C 289.200 379.780,289.560 379.600,290.000 379.600 C 290.440 379.600,290.800 379.420,290.800 379.200 C 290.800 378.980,291.160 378.800,291.600 378.800 C 292.040 378.800,292.400 378.620,292.400 378.400 C 292.400 378.180,292.760 378.000,293.200 378.000 C 293.640 378.000,294.000 377.820,294.000 377.600 C 294.000 377.380,294.360 377.200,294.800 377.200 C 295.240 377.200,295.600 377.020,295.600 376.800 C 295.600 376.580,295.960 376.400,296.400 376.400 C 296.840 376.400,297.200 376.220,297.200 376.000 C 297.200 375.780,297.520 375.600,297.912 375.600 C 298.303 375.600,298.883 375.240,299.200 374.800 C 299.517 374.360,300.097 374.000,300.488 374.000 C 300.880 374.000,301.200 373.820,301.200 373.600 C 301.200 373.380,301.560 373.200,302.000 373.200 C 302.440 373.200,302.800 373.020,302.800 372.800 C 302.800 372.580,303.036 372.400,303.325 372.400 C 303.613 372.400,304.236 372.040,304.708 371.600 C 305.180 371.160,305.804 370.800,306.095 370.800 C 306.386 370.800,306.883 370.440,307.200 370.000 C 307.517 369.560,308.014 369.200,308.305 369.200 C 308.596 369.200,309.220 368.840,309.692 368.400 C 310.164 367.960,310.787 367.600,311.075 367.600 C 311.364 367.600,311.600 367.420,311.600 367.200 C 311.600 366.980,311.843 366.800,312.141 366.800 C 312.438 366.800,313.246 366.260,313.937 365.600 C 314.628 364.940,315.425 364.400,315.708 364.400 C 315.991 364.400,316.483 364.040,316.800 363.600 C 317.117 363.160,317.580 362.800,317.829 362.800 C 318.078 362.800,318.846 362.260,319.537 361.600 C 320.228 360.940,320.953 360.400,321.148 360.400 C 321.344 360.400,322.245 359.680,323.152 358.800 C 324.059 357.920,324.995 357.200,325.232 357.200 C 325.469 357.200,326.354 356.480,327.200 355.600 C 328.046 354.720,328.916 354.000,329.134 354.000 C 329.352 354.000,330.587 352.965,331.879 351.700 C 333.171 350.435,334.928 348.872,335.783 348.227 C 337.798 346.707,346.707 337.798,348.227 335.783 C 348.872 334.928,350.435 333.171,351.700 331.879 C 352.965 330.587,354.000 329.352,354.000 329.134 C 354.000 328.916,354.720 328.046,355.600 327.200 C 356.480 326.354,357.200 325.469,357.200 325.232 C 357.200 324.995,357.920 324.059,358.800 323.152 C 359.680 322.245,360.400 321.344,360.400 321.148 C 360.400 320.953,360.940 320.228,361.600 319.537 C 362.260 318.846,362.800 318.078,362.800 317.829 C 362.800 317.580,363.160 317.117,363.600 316.800 C 364.040 316.483,364.400 315.991,364.400 315.708 C 364.400 315.425,364.940 314.628,365.600 313.937 C 366.260 313.246,366.800 312.438,366.800 312.141 C 366.800 311.843,366.980 311.600,367.200 311.600 C 367.420 311.600,367.600 311.364,367.600 311.075 C 367.600 310.787,367.960 310.164,368.400 309.692 C 368.840 309.220,369.200 308.596,369.200 308.305 C 369.200 308.014,369.560 307.517,370.000 307.200 C 370.440 306.883,370.800 306.386,370.800 306.095 C 370.800 305.804,371.160 305.180,371.600 304.708 C 372.040 304.236,372.400 303.613,372.400 303.325 C 372.400 303.036,372.580 302.800,372.800 302.800 C 373.020 302.800,373.200 302.440,373.200 302.000 C 373.200 301.560,373.380 301.200,373.600 301.200 C 373.820 301.200,374.000 300.880,374.000 300.488 C 374.000 300.097,374.360 299.517,374.800 299.200 C 375.240 298.883,375.600 298.303,375.600 297.912 C 375.600 297.520,375.780 297.200,376.000 297.200 C 376.220 297.200,376.400 296.840,376.400 296.400 C 376.400 295.960,376.580 295.600,376.800 295.600 C 377.020 295.600,377.200 295.240,377.200 294.800 C 377.200 294.360,377.380 294.000,377.600 294.000 C 377.820 294.000,378.000 293.640,378.000 293.200 C 378.000 292.760,378.180 292.400,378.400 292.400 C 378.620 292.400,378.800 292.040,378.800 291.600 C 378.800 291.160,378.980 290.800,379.200 290.800 C 379.420 290.800,379.600 290.440,379.600 290.000 C 379.600 289.560,379.780 289.200,380.000 289.200 C 380.220 289.200,380.400 288.840,380.400 288.400 C 380.400 287.960,380.580 287.600,380.800 287.600 C 381.020 287.600,381.200 287.240,381.200 286.800 C 381.200 286.360,381.380 286.000,381.600 286.000 C 381.820 286.000,382.000 285.640,382.000 285.200 C 382.000 284.760,382.180 284.400,382.400 284.400 C 382.620 284.400,382.800 284.040,382.800 283.600 C 382.800 283.160,382.980 282.800,383.200 282.800 C 383.420 282.800,383.600 282.451,383.600 282.024 C 383.600 281.597,383.780 281.136,384.000 281.000 C 384.220 280.864,384.400 280.313,384.400 279.776 C 384.400 279.239,384.580 278.800,384.800 278.800 C 385.020 278.800,385.200 278.440,385.200 278.000 C 385.200 277.560,385.380 277.200,385.600 277.200 C 385.820 277.200,386.000 276.660,386.000 276.000 C 386.000 275.340,386.180 274.800,386.400 274.800 C 386.620 274.800,386.800 274.440,386.800 274.000 C 386.800 273.560,386.980 273.200,387.200 273.200 C 387.420 273.200,387.600 272.660,387.600 272.000 C 387.600 271.340,387.780 270.800,388.000 270.800 C 388.220 270.800,388.400 270.440,388.400 270.000 C 388.400 269.560,388.580 269.200,388.800 269.200 C 389.020 269.200,389.200 268.660,389.200 268.000 C 389.200 267.340,389.380 266.800,389.600 266.800 C 389.820 266.800,390.000 266.260,390.000 265.600 C 390.000 264.940,390.180 264.400,390.400 264.400 C 390.620 264.400,390.800 263.860,390.800 263.200 C 390.800 262.540,390.980 262.000,391.200 262.000 C 391.420 262.000,391.600 261.460,391.600 260.800 C 391.600 260.140,391.780 259.600,392.000 259.600 C 392.220 259.600,392.400 258.880,392.400 258.000 C 392.400 257.120,392.580 256.400,392.800 256.400 C 393.020 256.400,393.200 255.871,393.200 255.224 C 393.200 254.577,393.380 253.936,393.600 253.800 C 393.820 253.664,394.000 252.933,394.000 252.176 C 394.000 251.419,394.180 250.800,394.400 250.800 C 394.620 250.800,394.800 250.080,394.800 249.200 C 394.800 248.320,394.980 247.600,395.200 247.600 C 395.420 247.600,395.600 246.891,395.600 246.024 C 395.600 245.157,395.780 244.336,396.000 244.200 C 396.220 244.064,396.400 243.153,396.400 242.176 C 396.400 241.199,396.580 240.400,396.800 240.400 C 397.020 240.400,397.200 239.421,397.200 238.224 C 397.200 237.027,397.380 235.936,397.600 235.800 C 397.820 235.664,398.000 234.663,398.000 233.576 C 398.000 232.489,398.180 231.600,398.400 231.600 C 398.633 231.600,398.800 230.278,398.800 228.433 C 398.800 226.256,398.956 225.215,399.300 225.100 C 399.693 224.969,399.800 219.591,399.800 200.000 C 399.800 180.409,399.693 175.031,399.300 174.900 C 398.956 174.785,398.800 173.744,398.800 171.567 C 398.800 169.722,398.633 168.400,398.400 168.400 C 398.180 168.400,398.000 167.511,398.000 166.424 C 398.000 165.337,397.820 164.336,397.600 164.200 C 397.380 164.064,397.200 162.973,397.200 161.776 C 397.200 160.579,397.020 159.600,396.800 159.600 C 396.580 159.600,396.400 158.801,396.400 157.824 C 396.400 156.847,396.220 155.936,396.000 155.800 C 395.780 155.664,395.600 154.843,395.600 153.976 C 395.600 153.109,395.420 152.400,395.200 152.400 C 394.980 152.400,394.800 151.680,394.800 150.800 C 394.800 149.920,394.620 149.200,394.400 149.200 C 394.180 149.200,394.000 148.581,394.000 147.824 C 394.000 147.067,393.820 146.336,393.600 146.200 C 393.380 146.064,393.200 145.423,393.200 144.776 C 393.200 144.129,393.020 143.600,392.800 143.600 C 392.580 143.600,392.400 142.880,392.400 142.000 C 392.400 141.120,392.220 140.400,392.000 140.400 C 391.780 140.400,391.600 139.860,391.600 139.200 C 391.600 138.540,391.420 138.000,391.200 138.000 C 390.980 138.000,390.800 137.460,390.800 136.800 C 390.800 136.140,390.620 135.600,390.400 135.600 C 390.180 135.600,390.000 135.060,390.000 134.400 C 390.000 133.740,389.820 133.200,389.600 133.200 C 389.380 133.200,389.200 132.660,389.200 132.000 C 389.200 131.340,389.020 130.800,388.800 130.800 C 388.580 130.800,388.400 130.440,388.400 130.000 C 388.400 129.560,388.220 129.200,388.000 129.200 C 387.780 129.200,387.600 128.660,387.600 128.000 C 387.600 127.340,387.420 126.800,387.200 126.800 C 386.980 126.800,386.800 126.440,386.800 126.000 C 386.800 125.560,386.620 125.200,386.400 125.200 C 386.180 125.200,386.000 124.660,386.000 124.000 C 386.000 123.340,385.820 122.800,385.600 122.800 C 385.380 122.800,385.200 122.440,385.200 122.000 C 385.200 121.560,385.020 121.200,384.800 121.200 C 384.580 121.200,384.400 120.761,384.400 120.224 C 384.400 119.687,384.220 119.136,384.000 119.000 C 383.780 118.864,383.600 118.403,383.600 117.976 C 383.600 117.549,383.420 117.200,383.200 117.200 C 382.980 117.200,382.800 116.840,382.800 116.400 C 382.800 115.960,382.620 115.600,382.400 115.600 C 382.180 115.600,382.000 115.240,382.000 114.800 C 382.000 114.360,381.820 114.000,381.600 114.000 C 381.380 114.000,381.200 113.640,381.200 113.200 C 381.200 112.760,381.020 112.400,380.800 112.400 C 380.580 112.400,380.400 112.040,380.400 111.600 C 380.400 111.160,380.220 110.800,380.000 110.800 C 379.780 110.800,379.600 110.440,379.600 110.000 C 379.600 109.560,379.420 109.200,379.200 109.200 C 378.980 109.200,378.800 108.840,378.800 108.400 C 378.800 107.960,378.620 107.600,378.400 107.600 C 378.180 107.600,378.000 107.240,378.000 106.800 C 378.000 106.360,377.820 106.000,377.600 106.000 C 377.380 106.000,377.200 105.640,377.200 105.200 C 377.200 104.760,377.020 104.400,376.800 104.400 C 376.580 104.400,376.400 104.040,376.400 103.600 C 376.400 103.160,376.220 102.800,376.000 102.800 C 375.780 102.800,375.600 102.480,375.600 102.088 C 375.600 101.697,375.240 101.117,374.800 100.800 C 374.360 100.483,374.000 99.903,374.000 99.512 C 374.000 99.120,373.820 98.800,373.600 98.800 C 373.380 98.800,373.200 98.440,373.200 98.000 C 373.200 97.560,373.020 97.200,372.800 97.200 C 372.580 97.200,372.400 96.964,372.400 96.675 C 372.400 96.387,372.040 95.764,371.600 95.292 C 371.160 94.820,370.800 94.196,370.800 93.905 C 370.800 93.614,370.440 93.117,370.000 92.800 C 369.560 92.483,369.200 91.986,369.200 91.695 C 369.200 91.404,368.840 90.780,368.400 90.308 C 367.960 89.836,367.600 89.213,367.600 88.925 C 367.600 88.636,367.420 88.400,367.200 88.400 C 366.980 88.400,366.800 88.157,366.800 87.859 C 366.800 87.562,366.260 86.754,365.600 86.063 C 364.940 85.372,364.400 84.575,364.400 84.292 C 364.400 84.009,364.040 83.517,363.600 83.200 C 363.160 82.883,362.800 82.420,362.800 82.171 C 362.800 81.922,362.260 81.154,361.600 80.463 C 360.940 79.772,360.400 79.047,360.400 78.852 C 360.400 78.656,359.680 77.755,358.800 76.848 C 357.920 75.941,357.200 75.005,357.200 74.768 C 357.200 74.531,356.480 73.646,355.600 72.800 C 354.720 71.954,354.000 71.084,354.000 70.866 C 354.000 70.648,352.965 69.413,351.700 68.121 C 350.435 66.829,348.872 65.072,348.227 64.217 C 346.707 62.202,337.798 53.293,335.783 51.773 C 334.928 51.128,333.171 49.565,331.879 48.300 C 330.587 47.035,329.352 46.000,329.134 46.000 C 328.916 46.000,328.046 45.280,327.200 44.400 C 326.354 43.520,325.469 42.800,325.232 42.800 C 324.995 42.800,324.059 42.080,323.152 41.200 C 322.245 40.320,321.344 39.600,321.148 39.600 C 320.953 39.600,320.228 39.060,319.537 38.400 C 318.846 37.740,318.078 37.200,317.829 37.200 C 317.580 37.200,317.117 36.840,316.800 36.400 C 316.483 35.960,315.991 35.600,315.708 35.600 C 315.425 35.600,314.628 35.060,313.937 34.400 C 313.246 33.740,312.438 33.200,312.141 33.200 C 311.843 33.200,311.600 33.020,311.600 32.800 C 311.600 32.580,311.364 32.400,311.075 32.400 C 310.787 32.400,310.164 32.040,309.692 31.600 C 309.220 31.160,308.596 30.800,308.305 30.800 C 308.014 30.800,307.517 30.440,307.200 30.000 C 306.883 29.560,306.386 29.200,306.095 29.200 C 305.804 29.200,305.180 28.840,304.708 28.400 C 304.236 27.960,303.613 27.600,303.325 27.600 C 303.036 27.600,302.800 27.420,302.800 27.200 C 302.800 26.980,302.440 26.800,302.000 26.800 C 301.560 26.800,301.200 26.620,301.200 26.400 C 301.200 26.180,300.880 26.000,300.488 26.000 C 300.097 26.000,299.517 25.640,299.200 25.200 C 298.883 24.760,298.303 24.400,297.912 24.400 C 297.520 24.400,297.200 24.220,297.200 24.000 C 297.200 23.780,296.840 23.600,296.400 23.600 C 295.960 23.600,295.600 23.420,295.600 23.200 C 295.600 22.980,295.240 22.800,294.800 22.800 C 294.360 22.800,294.000 22.620,294.000 22.400 C 294.000 22.180,293.640 22.000,293.200 22.000 C 292.760 22.000,292.400 21.820,292.400 21.600 C 292.400 21.380,292.040 21.200,291.600 21.200 C 291.160 21.200,290.800 21.020,290.800 20.800 C 290.800 20.580,290.440 20.400,290.000 20.400 C 289.560 20.400,289.200 20.220,289.200 20.000 C 289.200 19.780,288.840 19.600,288.400 19.600 C 287.960 19.600,287.600 19.420,287.600 19.200 C 287.600 18.980,287.240 18.800,286.800 18.800 C 286.360 18.800,286.000 18.620,286.000 18.400 C 286.000 18.180,285.640 18.000,285.200 18.000 C 284.760 18.000,284.400 17.820,284.400 17.600 C 284.400 17.380,284.040 17.200,283.600 17.200 C 283.160 17.200,282.800 17.020,282.800 16.800 C 282.800 16.580,282.451 16.400,282.024 16.400 C 281.597 16.400,281.136 16.220,281.000 16.000 C 280.864 15.780,280.313 15.600,279.776 15.600 C 279.239 15.600,278.800 15.420,278.800 15.200 C 278.800 14.980,278.440 14.800,278.000 14.800 C 277.560 14.800,277.200 14.620,277.200 14.400 C 277.200 14.180,276.660 14.000,276.000 14.000 C 275.340 14.000,274.800 13.820,274.800 13.600 C 274.800 13.380,274.440 13.200,274.000 13.200 C 273.560 13.200,273.200 13.020,273.200 12.800 C 273.200 12.580,272.660 12.400,272.000 12.400 C 271.340 12.400,270.800 12.220,270.800 12.000 C 270.800 11.780,270.440 11.600,270.000 11.600 C 269.560 11.600,269.200 11.420,269.200 11.200 C 269.200 10.980,268.660 10.800,268.000 10.800 C 267.340 10.800,266.800 10.620,266.800 10.400 C 266.800 10.180,266.260 10.000,265.600 10.000 C 264.940 10.000,264.400 9.820,264.400 9.600 C 264.400 9.380,263.860 9.200,263.200 9.200 C 262.540 9.200,262.000 9.020,262.000 8.800 C 262.000 8.580,261.460 8.400,260.800 8.400 C 260.140 8.400,259.600 8.220,259.600 8.000 C 259.600 7.780,258.880 7.600,258.000 7.600 C 257.120 7.600,256.400 7.420,256.400 7.200 C 256.400 6.980,255.871 6.800,255.224 6.800 C 254.577 6.800,253.936 6.620,253.800 6.400 C 253.664 6.180,252.933 6.000,252.176 6.000 C 251.419 6.000,250.800 5.820,250.800 5.600 C 250.800 5.380,250.080 5.200,249.200 5.200 C 248.320 5.200,247.600 5.020,247.600 4.800 C 247.600 4.580,246.891 4.400,246.024 4.400 C 245.157 4.400,244.336 4.220,244.200 4.000 C 244.064 3.780,243.153 3.600,242.176 3.600 C 241.199 3.600,240.400 3.420,240.400 3.200 C 240.400 2.980,239.421 2.800,238.224 2.800 C 237.027 2.800,235.936 2.620,235.800 2.400 C 235.664 2.180,234.663 2.000,233.576 2.000 C 232.489 2.000,231.600 1.820,231.600 1.600 C 231.600 1.367,230.278 1.200,228.433 1.200 C 226.304 1.200,225.214 1.041,225.105 0.714 C 224.944 0.233,187.802 -0.118,178.500 0.274 M205.969 55.122 C 210.264 58.571,223.753 75.173,225.858 79.600 C 226.015 79.930,227.011 81.443,228.072 82.963 C 229.132 84.482,230.000 85.894,230.000 86.101 C 230.000 86.308,230.339 86.954,230.753 87.538 C 234.160 92.340,243.820 113.094,246.422 121.200 C 246.811 122.410,247.324 123.940,247.563 124.600 C 248.940 128.410,251.046 136.035,253.583 146.400 C 254.046 148.290,255.512 156.167,255.818 158.400 C 255.953 159.390,256.232 161.093,256.437 162.184 C 257.265 166.578,257.803 172.642,258.408 184.395 C 258.640 188.902,258.958 192.696,259.115 192.826 C 259.272 192.955,260.660 193.940,262.200 195.013 C 268.801 199.613,279.205 211.401,283.019 218.600 C 283.602 219.700,284.327 221.050,284.630 221.600 C 285.521 223.214,287.600 227.985,287.600 228.415 C 287.600 228.633,287.771 229.123,287.981 229.505 C 291.436 235.802,293.384 256.441,291.218 263.800 C 291.024 264.460,290.746 265.874,290.602 266.942 C 290.317 269.039,288.341 275.605,287.213 278.200 C 286.831 279.080,286.402 280.128,286.260 280.530 C 285.822 281.770,284.652 281.102,283.580 279.000 C 278.319 268.680,268.923 257.069,261.936 252.254 C 260.761 251.444,258.720 249.960,257.400 248.957 C 253.364 245.889,252.850 245.842,252.360 248.496 C 250.518 258.490,247.323 266.114,244.670 266.846 C 241.631 267.684,161.739 267.499,160.097 266.650 C 158.647 265.901,156.995 263.629,156.569 261.800 C 156.415 261.140,156.157 260.420,155.995 260.200 C 155.409 259.404,153.870 254.548,152.793 250.103 C 152.188 247.604,151.596 245.463,151.479 245.345 C 151.091 244.958,143.481 250.398,139.291 254.058 C 132.234 260.223,124.961 269.541,120.827 277.715 C 119.903 279.541,119.250 280.391,118.832 280.311 C 118.201 280.189,116.177 275.764,115.580 273.200 C 115.400 272.430,115.045 271.080,114.791 270.200 C 112.691 262.935,111.892 251.126,113.031 244.200 C 113.357 242.220,113.644 240.240,113.669 239.800 C 113.887 236.015,118.969 222.493,121.664 218.528 C 122.289 217.608,122.800 216.693,122.800 216.493 C 122.800 213.661,139.700 195.066,144.613 192.491 C 145.156 192.207,145.608 191.935,145.618 191.887 C 145.628 191.839,145.805 188.740,146.011 185.000 C 146.572 174.814,147.022 170.271,148.409 160.800 C 149.530 153.143,152.708 139.541,155.743 129.400 C 156.727 126.114,159.657 117.830,159.988 117.400 C 160.157 117.180,160.519 116.308,160.792 115.461 C 161.064 114.615,161.537 113.445,161.841 112.861 C 162.146 112.278,162.396 111.657,162.398 111.482 C 162.399 111.306,163.030 109.817,163.800 108.173 C 164.570 106.528,165.200 105.087,165.200 104.971 C 165.200 104.656,170.001 95.076,172.001 91.400 C 178.609 79.256,189.518 64.394,197.457 56.722 C 201.034 53.266,203.161 52.866,205.969 55.122 M196.200 143.624 C 177.957 149.329,175.038 174.039,191.491 183.489 C 193.081 184.402,194.881 185.247,195.491 185.367 C 196.101 185.486,197.410 185.760,198.400 185.975 C 206.630 187.760,218.442 182.651,221.464 176.000 C 222.762 173.144,223.265 171.901,223.393 171.235 C 223.471 170.831,223.729 169.802,223.965 168.950 C 228.160 153.842,211.658 138.789,196.200 143.624 " stroke="none" fill="#fb7c04" fill-rule="evenodd"></path><path id="path2" d="M201.700 54.276 C 202.085 54.376,202.715 54.376,203.100 54.276 C 203.485 54.175,203.170 54.093,202.400 54.093 C 201.630 54.093,201.315 54.175,201.700 54.276 M209.600 59.400 C 210.346 60.170,211.047 60.800,211.157 60.800 C 211.267 60.800,210.746 60.170,210.000 59.400 C 209.254 58.630,208.553 58.000,208.443 58.000 C 208.333 58.000,208.854 58.630,209.600 59.400 M194.575 60.100 L 193.400 61.400 194.700 60.225 C 195.912 59.130,196.184 58.800,195.875 58.800 C 195.806 58.800,195.221 59.385,194.575 60.100 M253.152 147.287 C 253.337 148.398,253.393 148.455,253.519 147.654 C 253.601 147.133,253.503 146.543,253.301 146.341 C 253.079 146.119,253.021 146.493,253.152 147.287 M256.893 170.800 C 256.893 171.570,256.975 171.885,257.076 171.500 C 257.176 171.115,257.176 170.485,257.076 170.100 C 256.975 169.715,256.893 170.030,256.893 170.800 M257.293 174.000 C 257.293 174.770,257.375 175.085,257.476 174.700 C 257.576 174.315,257.576 173.685,257.476 173.300 C 257.375 172.915,257.293 173.230,257.293 174.000 M146.901 176.200 C 146.905 177.080,146.987 177.393,147.083 176.895 C 147.179 176.398,147.175 175.678,147.075 175.295 C 146.975 174.913,146.896 175.320,146.901 176.200 M258.134 188.800 C 258.134 190.450,258.205 191.125,258.291 190.300 C 258.378 189.475,258.378 188.125,258.291 187.300 C 258.205 186.475,258.134 187.150,258.134 188.800 M146.120 189.600 C 146.120 190.810,146.195 191.305,146.287 190.700 C 146.378 190.095,146.378 189.105,146.287 188.500 C 146.195 187.895,146.120 188.390,146.120 189.600 M137.375 198.900 L 136.200 200.200 137.500 199.025 C 138.215 198.379,138.800 197.794,138.800 197.725 C 138.800 197.416,138.470 197.688,137.375 198.900 M270.200 202.800 C 272.171 204.780,273.873 206.400,273.983 206.400 C 274.093 206.400,272.571 204.780,270.600 202.800 C 268.629 200.820,266.927 199.200,266.817 199.200 C 266.707 199.200,268.229 200.820,270.200 202.800 M133.785 202.500 L 131.800 204.600 133.900 202.615 C 135.055 201.523,136.000 200.578,136.000 200.515 C 136.000 200.217,135.629 200.549,133.785 202.500 M291.309 246.400 C 291.309 247.390,291.387 247.795,291.482 247.300 C 291.578 246.805,291.578 245.995,291.482 245.500 C 291.387 245.005,291.309 245.410,291.309 246.400 M251.646 249.267 C 251.621 249.634,251.496 250.264,251.370 250.667 C 251.152 251.362,251.163 251.363,251.597 250.687 C 251.848 250.296,251.973 249.666,251.873 249.287 C 251.711 248.668,251.688 248.666,251.646 249.267 M291.293 258.800 C 291.293 259.570,291.375 259.885,291.476 259.500 C 291.576 259.115,291.576 258.485,291.476 258.100 C 291.375 257.715,291.293 258.030,291.293 258.800 M284.392 279.900 C 284.872 280.890,285.399 281.049,285.838 280.338 C 286.021 280.043,285.947 279.985,285.635 280.178 C 285.350 280.354,284.899 280.172,284.551 279.740 C 283.995 279.049,283.985 279.059,284.392 279.900 M174.400 289.086 C 175.170 289.174,176.025 289.539,176.300 289.899 C 176.575 290.259,176.800 290.375,176.800 290.156 C 176.800 289.346,175.798 288.802,174.420 288.864 L 173.000 288.928 174.400 289.086 M208.100 289.076 C 208.485 289.176,209.115 289.176,209.500 289.076 C 209.885 288.975,209.570 288.893,208.800 288.893 C 208.030 288.893,207.715 288.975,208.100 289.076 M241.400 289.003 C 242.314 289.321,244.729 289.409,244.548 289.116 C 244.441 288.942,243.598 288.814,242.676 288.832 C 241.754 288.849,241.180 288.926,241.400 289.003 M160.912 289.495 C 161.964 289.577,163.584 289.576,164.512 289.492 C 165.440 289.408,164.580 289.341,162.600 289.342 C 160.620 289.343,159.860 289.412,160.912 289.495 M195.312 289.495 C 196.364 289.577,197.984 289.576,198.912 289.492 C 199.840 289.408,198.980 289.341,197.000 289.342 C 195.020 289.343,194.260 289.412,195.312 289.495 M228.912 289.495 C 229.964 289.577,231.584 289.576,232.512 289.492 C 233.440 289.408,232.580 289.341,230.600 289.342 C 228.620 289.343,227.860 289.412,228.912 289.495 M156.150 301.800 C 156.151 304.220,156.216 305.158,156.296 303.885 C 156.376 302.612,156.375 300.632,156.294 299.485 C 156.214 298.338,156.149 299.380,156.150 301.800 M210.953 303.400 C 210.953 306.040,211.018 307.068,211.097 305.684 C 211.175 304.301,211.174 302.141,211.095 300.884 C 211.016 299.628,210.952 300.760,210.953 303.400 M224.557 305.600 C 224.557 308.570,224.620 309.785,224.697 308.300 C 224.774 306.815,224.774 304.385,224.697 302.900 C 224.620 301.415,224.557 302.630,224.557 305.600 M244.955 309.000 C 244.956 311.860,245.020 312.978,245.097 311.483 C 245.174 309.989,245.174 307.649,245.096 306.283 C 245.018 304.918,244.955 306.140,244.955 309.000 M190.550 318.600 C 190.551 321.020,190.616 321.958,190.696 320.685 C 190.776 319.412,190.775 317.432,190.694 316.285 C 190.614 315.138,190.549 316.180,190.550 318.600 M156.551 320.800 C 156.551 323.330,156.616 324.365,156.696 323.100 C 156.775 321.835,156.775 319.765,156.696 318.500 C 156.616 317.235,156.551 318.270,156.551 320.800 M176.951 324.000 C 176.951 326.530,177.016 327.565,177.096 326.300 C 177.175 325.035,177.175 322.965,177.096 321.700 C 177.016 320.435,176.951 321.470,176.951 324.000 M245.355 330.200 C 245.356 333.060,245.420 334.178,245.497 332.683 C 245.574 331.189,245.574 328.849,245.496 327.483 C 245.418 326.118,245.355 327.340,245.355 330.200 M190.951 336.800 C 190.951 339.330,191.016 340.365,191.096 339.100 C 191.175 337.835,191.175 335.765,191.096 334.500 C 191.016 333.235,190.951 334.270,190.951 336.800 M211.351 340.000 C 211.351 342.530,211.416 343.565,211.496 342.300 C 211.575 341.035,211.575 338.965,211.496 337.700 C 211.416 336.435,211.351 337.470,211.351 340.000 M177.350 343.000 C 177.351 345.420,177.416 346.358,177.496 345.085 C 177.576 343.812,177.575 341.832,177.494 340.685 C 177.414 339.538,177.349 340.580,177.350 343.000 M224.955 348.200 C 224.956 351.060,225.020 352.178,225.097 350.683 C 225.174 349.189,225.174 346.849,225.096 345.483 C 225.018 344.118,224.955 345.340,224.955 348.200 M156.953 358.200 C 156.953 360.840,157.018 361.868,157.097 360.484 C 157.175 359.101,157.174 356.941,157.095 355.684 C 157.016 354.428,156.952 355.560,156.953 358.200 M211.750 358.200 C 211.751 360.620,211.816 361.558,211.896 360.285 C 211.976 359.012,211.975 357.032,211.894 355.885 C 211.814 354.738,211.749 355.780,211.750 358.200 M225.357 369.600 C 225.357 372.570,225.420 373.785,225.497 372.300 C 225.574 370.815,225.574 368.385,225.497 366.900 C 225.420 365.415,225.357 366.630,225.357 369.600 M245.757 373.600 C 245.757 376.570,245.820 377.785,245.897 376.300 C 245.974 374.815,245.974 372.385,245.897 370.900 C 245.820 369.415,245.757 370.630,245.757 373.600 M191.350 373.000 C 191.351 375.420,191.416 376.358,191.496 375.085 C 191.576 373.812,191.575 371.832,191.494 370.685 C 191.414 369.538,191.349 370.580,191.350 373.000 M157.353 377.000 C 157.353 379.640,157.418 380.668,157.497 379.284 C 157.575 377.901,157.574 375.741,157.495 374.484 C 157.416 373.228,157.352 374.360,157.353 377.000 M177.751 380.800 C 177.751 383.330,177.816 384.365,177.896 383.100 C 177.975 381.835,177.975 379.765,177.896 378.500 C 177.816 377.235,177.751 378.270,177.751 380.800 M191.751 391.200 C 191.751 393.730,191.816 394.765,191.896 393.500 C 191.975 392.235,191.975 390.165,191.896 388.900 C 191.816 387.635,191.751 388.670,191.751 391.200 M212.151 394.400 C 212.151 396.930,212.216 397.965,212.296 396.700 C 212.375 395.435,212.375 393.365,212.296 392.100 C 212.216 390.835,212.151 391.870,212.151 394.400 M246.046 392.076 C 246.021 393.328,246.135 394.436,246.300 394.538 C 246.465 394.640,246.546 393.886,246.480 392.862 C 246.293 389.941,246.097 389.586,246.046 392.076 M178.114 396.600 C 178.117 397.700,178.195 398.103,178.287 397.495 C 178.379 396.886,178.377 395.986,178.282 395.495 C 178.187 395.003,178.111 395.500,178.114 396.600 " stroke="none" fill="#fbaa56" fill-rule="evenodd"></path><path id="path3" d="M199.800 55.135 C 199.140 55.538,196.710 58.012,194.400 60.633 C 192.091 63.255,190.111 65.490,190.001 65.600 C 189.890 65.710,189.172 66.610,188.406 67.600 C 187.639 68.590,186.790 69.670,186.520 70.000 C 185.167 71.653,179.338 80.120,177.983 82.400 C 177.134 83.830,175.890 85.810,175.221 86.800 C 174.551 87.790,174.003 88.744,174.002 88.919 C 174.001 89.095,173.411 90.175,172.691 91.319 C 171.520 93.181,167.948 100.273,164.458 107.666 C 163.766 109.132,163.207 110.572,163.215 110.866 C 163.224 111.160,163.948 109.870,164.824 108.000 C 167.102 103.137,172.678 92.016,173.549 90.600 C 173.955 89.940,174.689 88.680,175.182 87.800 C 179.333 80.379,187.599 68.950,194.709 60.800 C 202.342 52.050,203.548 52.343,214.450 65.597 C 219.957 72.293,231.200 88.763,231.200 90.134 C 231.200 90.272,231.830 91.369,232.600 92.573 C 233.370 93.777,234.000 94.853,234.000 94.965 C 234.000 95.078,235.507 98.281,237.348 102.085 C 241.218 110.077,244.407 117.963,246.821 125.507 C 247.755 128.426,248.607 130.726,248.714 130.619 C 248.931 130.402,247.416 125.290,246.556 123.340 C 246.250 122.646,246.000 121.883,246.000 121.644 C 246.000 121.247,244.428 116.939,243.575 115.000 C 243.381 114.560,242.395 112.220,241.384 109.800 C 239.850 106.130,234.042 94.086,232.801 92.000 C 232.604 91.670,231.685 90.050,230.759 88.400 C 225.608 79.228,218.409 69.278,210.262 60.074 C 205.157 54.306,202.904 53.242,199.800 55.135 M162.223 113.006 C 161.881 113.826,161.600 114.710,161.600 114.969 C 161.600 115.228,161.440 115.611,161.245 115.820 C 160.776 116.322,157.091 126.589,156.012 130.400 C 155.545 132.050,155.015 133.760,154.835 134.200 C 154.443 135.155,153.600 138.620,153.600 139.272 C 153.600 140.079,154.058 139.310,154.399 137.932 C 155.316 134.225,156.521 130.099,157.780 126.356 C 159.983 119.811,160.351 118.809,161.857 115.270 C 162.637 113.439,163.178 111.845,163.061 111.727 C 162.943 111.610,162.566 112.185,162.223 113.006 M248.827 131.650 C 248.812 132.007,249.041 132.997,249.336 133.850 C 249.632 134.702,250.470 137.786,251.201 140.703 C 251.931 143.619,252.602 145.931,252.693 145.840 C 252.980 145.553,250.075 133.908,249.190 131.800 C 248.934 131.190,248.848 131.154,248.827 131.650 M152.853 141.460 C 152.634 142.307,151.989 145.160,151.421 147.800 C 150.853 150.440,150.211 153.355,149.994 154.277 C 149.777 155.200,149.611 156.460,149.625 157.077 C 149.639 157.695,150.180 155.680,150.827 152.600 C 151.475 149.520,152.379 145.500,152.836 143.667 C 153.294 141.834,153.575 140.241,153.460 140.127 C 153.346 140.013,153.073 140.612,152.853 141.460 M199.303 142.015 C 196.545 142.406,195.057 142.790,195.312 143.046 C 195.426 143.160,196.296 143.044,197.244 142.788 C 213.363 138.448,227.771 153.314,224.199 170.600 C 223.985 171.638,224.015 171.698,224.426 171.045 C 225.272 169.701,225.401 161.984,224.632 158.818 C 221.914 147.635,210.954 140.364,199.303 142.015 M192.410 144.029 C 185.858 147.002,179.134 156.835,180.107 162.021 C 180.267 162.870,180.298 162.837,180.346 161.773 C 180.638 155.192,189.107 144.000,193.794 144.000 C 194.101 144.000,194.464 143.820,194.600 143.600 C 194.963 143.012,194.416 143.120,192.410 144.029 M252.875 147.400 C 252.865 148.060,253.011 148.960,253.200 149.400 L 253.544 150.200 253.525 149.400 C 253.514 148.960,253.368 148.060,253.200 147.400 L 252.895 146.200 252.875 147.400 M253.855 152.200 C 254.068 154.134,254.250 154.715,254.537 154.367 C 254.612 154.275,254.440 153.300,254.155 152.200 L 253.635 150.200 253.855 152.200 M254.668 156.800 C 254.800 158.010,254.974 159.075,255.054 159.167 C 255.364 159.521,255.125 156.157,254.786 155.400 C 254.552 154.878,254.512 155.363,254.668 156.800 M149.156 158.700 C 149.132 158.865,149.065 159.548,149.007 160.218 C 148.949 160.889,148.702 162.689,148.457 164.218 C 147.584 169.678,147.278 172.234,147.215 174.591 C 147.126 177.956,147.475 177.219,147.780 173.400 C 147.920 171.640,148.312 168.310,148.650 166.000 C 149.615 159.410,149.721 158.400,149.452 158.400 C 149.313 158.400,149.180 158.535,149.156 158.700 M255.450 161.400 C 255.572 162.500,255.915 165.290,256.212 167.600 L 256.752 171.800 256.566 168.200 C 256.464 166.220,256.121 163.430,255.804 162.000 C 255.291 159.685,255.252 159.620,255.450 161.400 M179.606 164.500 C 179.603 165.105,179.780 165.600,180.000 165.600 C 180.506 165.600,180.506 164.783,180.000 164.000 C 179.698 163.532,179.611 163.643,179.606 164.500 M180.046 167.834 C 179.701 177.008,191.952 187.959,201.600 187.100 L 203.400 186.940 201.258 186.870 C 190.611 186.523,182.712 179.199,180.259 167.400 C 180.156 166.903,180.075 167.067,180.046 167.834 M222.413 174.891 C 219.275 181.428,213.082 185.568,204.400 186.934 C 203.644 187.053,203.736 187.104,204.774 187.146 C 211.572 187.415,221.149 180.516,223.531 173.635 C 224.317 171.366,223.857 171.882,222.413 174.891 M257.063 176.400 C 257.175 178.930,257.342 181.075,257.434 181.167 C 257.725 181.458,257.543 175.880,257.194 173.800 C 256.962 172.416,256.922 173.218,257.063 176.400 M146.698 179.686 C 146.585 180.849,146.462 183.952,146.427 186.582 C 146.353 191.983,146.476 191.716,142.800 194.477 C 136.260 199.390,127.226 209.716,122.919 217.200 C 118.891 224.199,114.323 235.993,114.444 239.082 C 114.479 239.986,114.549 239.893,114.810 238.600 C 116.300 231.212,122.143 218.189,126.736 212.024 C 131.448 205.698,137.967 198.766,142.200 195.581 C 143.300 194.753,144.756 193.555,145.436 192.919 L 146.671 191.763 146.952 184.832 C 147.229 178.024,147.105 175.518,146.698 179.686 M257.673 186.824 C 257.588 193.138,257.225 192.412,262.562 196.614 C 267.393 200.419,271.820 204.742,275.246 209.000 C 278.310 212.810,280.800 216.204,280.800 216.573 C 280.800 216.719,281.430 217.823,282.200 219.027 C 282.970 220.231,283.600 221.348,283.600 221.511 C 283.600 221.673,284.055 222.661,284.611 223.705 C 286.355 226.981,288.934 234.576,290.009 239.600 C 290.227 240.622,290.320 240.742,290.354 240.046 C 290.474 237.559,285.404 222.983,283.590 220.600 C 283.422 220.380,282.707 219.120,282.000 217.800 C 278.721 211.679,268.837 200.570,262.600 195.996 C 257.956 192.590,258.230 193.131,257.973 186.897 L 257.747 181.400 257.673 186.824 M113.846 241.600 C 112.890 246.830,112.555 255.154,113.156 258.800 C 113.341 259.928,113.452 257.986,113.452 253.600 C 113.452 249.541,113.668 245.475,113.967 243.923 C 114.250 242.451,114.397 241.011,114.292 240.723 C 114.188 240.435,113.987 240.830,113.846 241.600 M290.668 243.800 C 290.795 245.340,290.966 246.675,291.049 246.767 C 291.347 247.096,291.113 242.979,290.779 242.000 C 290.563 241.369,290.522 242.032,290.668 243.800 M148.800 245.659 C 137.555 252.631,124.010 267.560,120.128 277.263 C 119.790 278.108,119.366 278.800,119.186 278.800 C 118.780 278.800,116.802 274.543,116.794 273.652 C 116.791 273.293,116.603 272.730,116.377 272.400 C 115.734 271.459,116.186 274.005,116.990 275.849 C 117.362 276.702,117.931 278.011,118.255 278.758 L 118.843 280.117 119.475 279.214 C 119.823 278.717,120.694 277.116,121.410 275.656 C 126.693 264.884,139.390 251.490,149.896 245.607 C 152.011 244.422,152.100 244.563,153.772 251.747 C 153.919 252.378,154.127 252.806,154.235 252.698 C 154.479 252.454,152.917 246.128,152.310 244.900 C 151.751 243.771,151.895 243.740,148.800 245.659 M251.595 247.500 C 251.341 248.765,250.766 251.240,250.317 253.000 C 248.990 258.203,248.870 258.804,249.197 258.602 C 249.368 258.496,249.607 257.913,249.729 257.305 C 249.851 256.697,250.422 254.220,250.998 251.800 C 251.575 249.380,252.129 246.995,252.231 246.500 C 252.501 245.183,253.077 245.361,256.402 247.788 C 258.051 248.991,260.095 250.355,260.945 250.819 C 266.421 253.807,278.494 268.107,283.236 277.223 C 284.145 278.971,285.044 280.400,285.234 280.400 C 286.224 280.400,290.473 267.717,290.362 265.094 C 290.342 264.602,289.904 265.820,289.389 267.800 C 287.995 273.167,287.265 275.708,286.862 276.600 C 286.662 277.040,286.301 277.895,286.058 278.500 C 285.418 280.096,285.118 279.902,283.586 276.900 C 278.044 266.042,268.368 255.254,257.803 248.155 C 252.402 244.526,252.196 244.504,251.595 247.500 M291.111 251.337 C 291.283 257.583,291.466 258.311,291.530 253.000 C 291.562 250.360,291.456 247.991,291.294 247.737 C 291.132 247.482,291.050 249.102,291.111 251.337 M154.400 253.792 C 154.400 254.588,155.693 258.479,156.796 261.000 C 157.181 261.880,157.619 262.997,157.769 263.482 C 158.142 264.685,160.267 266.407,161.331 266.368 C 161.884 266.348,161.982 266.265,161.600 266.139 C 159.866 265.568,159.038 264.854,158.207 263.212 C 157.270 261.362,155.290 255.907,154.991 254.354 C 154.773 253.224,154.400 252.869,154.400 253.792 M290.640 261.040 C 290.490 262.503,290.449 263.782,290.548 263.882 C 290.648 263.981,290.857 262.871,291.013 261.413 C 291.169 259.956,291.211 258.677,291.105 258.572 C 290.999 258.466,290.790 259.577,290.640 261.040 M247.663 261.514 C 247.199 262.787,246.254 264.407,245.562 265.114 C 244.871 265.821,244.475 266.400,244.683 266.400 C 245.650 266.400,247.960 262.757,248.551 260.300 C 248.991 258.469,248.558 259.061,247.663 261.514 M113.606 262.233 C 113.609 263.095,113.793 264.070,114.014 264.400 C 114.296 264.820,114.341 264.401,114.166 263.000 C 113.855 260.515,113.598 260.163,113.606 262.233 M114.406 266.633 C 114.409 267.275,114.584 268.070,114.795 268.400 C 115.055 268.809,115.099 268.490,114.932 267.400 C 114.629 265.423,114.398 265.086,114.406 266.633 M163.900 266.689 C 164.615 266.778,165.785 266.778,166.500 266.689 C 167.215 266.601,166.630 266.528,165.200 266.528 C 163.770 266.528,163.185 266.601,163.900 266.689 M168.075 266.609 C 168.190 266.724,176.076 266.818,185.600 266.818 C 195.124 266.818,203.010 266.724,203.125 266.609 C 203.239 266.494,195.353 266.400,185.600 266.400 C 175.847 266.400,167.961 266.494,168.075 266.609 M207.500 266.698 C 209.755 266.770,213.445 266.770,215.700 266.698 C 217.955 266.627,216.110 266.569,211.600 266.569 C 207.090 266.569,205.245 266.627,207.500 266.698 M225.300 266.699 C 228.325 266.767,233.275 266.767,236.300 266.699 C 239.325 266.631,236.850 266.575,230.800 266.575 C 224.750 266.575,222.275 266.631,225.300 266.699 M115.212 269.800 C 115.212 270.240,115.387 270.870,115.600 271.200 C 115.921 271.697,115.988 271.662,115.988 271.000 C 115.988 270.560,115.813 269.930,115.600 269.600 C 115.279 269.103,115.212 269.138,115.212 269.800 M170.900 289.499 L 176.000 289.624 176.054 291.512 C 176.083 292.550,176.229 298.350,176.379 304.400 L 176.650 315.400 176.725 303.074 C 176.818 287.862,177.374 289.176,170.886 289.287 L 165.800 289.374 170.900 289.499 M205.200 289.581 L 210.200 289.800 210.486 306.000 C 210.644 314.910,210.843 324.180,210.928 326.600 C 211.014 329.020,211.005 321.841,210.909 310.647 C 210.813 299.453,210.640 290.048,210.524 289.747 C 210.360 289.318,209.222 289.218,205.257 289.281 L 200.200 289.362 205.200 289.581 M239.187 289.493 L 244.376 289.623 244.508 294.512 L 244.640 299.400 244.620 294.400 L 244.600 289.400 239.299 289.382 L 233.999 289.364 239.187 289.493 M156.198 290.100 C 156.101 290.375,156.175 296.450,156.362 303.600 L 156.702 316.600 156.651 303.300 C 156.618 294.763,156.743 289.939,157.000 289.831 C 157.220 289.739,157.169 289.649,156.887 289.632 C 156.606 289.614,156.296 289.825,156.198 290.100 M190.531 300.800 C 190.521 307.070,190.634 316.790,190.781 322.400 L 191.049 332.600 191.071 322.000 C 191.083 316.170,190.971 306.450,190.821 300.400 L 190.550 289.400 190.531 300.800 M224.575 290.122 C 224.464 290.409,224.426 292.884,224.489 295.622 L 224.604 300.600 224.802 295.099 C 224.997 289.678,224.970 289.091,224.575 290.122 M244.929 326.200 C 244.917 333.020,245.028 344.180,245.178 351.000 L 245.450 363.400 245.468 350.600 C 245.478 343.560,245.366 332.400,245.220 325.800 L 244.953 313.800 244.929 326.200 M224.933 328.000 C 224.923 334.930,225.034 346.000,225.180 352.600 L 225.447 364.600 225.467 352.000 C 225.477 345.070,225.366 334.000,225.220 327.400 L 224.953 315.400 224.933 328.000 M176.927 339.200 C 176.915 345.250,177.028 355.060,177.178 361.000 L 177.451 371.800 177.473 360.800 C 177.485 354.750,177.372 344.940,177.222 339.000 L 176.949 328.200 176.927 339.200 M156.928 340.200 C 156.916 346.140,157.028 355.860,157.178 361.800 L 157.451 372.600 157.472 362.000 C 157.484 356.170,157.371 346.450,157.221 340.400 L 156.950 329.400 156.928 340.200 M211.328 354.400 C 211.315 360.010,211.427 369.370,211.578 375.200 L 211.852 385.800 211.869 375.200 C 211.879 369.370,211.766 360.010,211.619 354.400 L 211.351 344.200 211.328 354.400 M191.332 356.000 C 191.322 361.830,191.434 371.190,191.581 376.800 L 191.849 387.000 191.868 376.400 C 191.878 370.570,191.766 361.210,191.619 355.600 L 191.351 345.400 191.332 356.000 M245.691 386.451 C 245.609 393.518,245.670 394.357,246.300 394.851 C 246.918 395.335,246.942 395.326,246.509 394.770 C 246.169 394.334,245.981 391.740,245.900 386.370 L 245.782 378.600 245.691 386.451 M225.599 389.281 C 225.490 394.495,225.538 398.623,225.708 398.453 C 225.877 398.283,225.967 394.017,225.907 388.972 L 225.799 379.800 225.599 389.281 M177.681 391.624 C 177.614 397.139,177.705 398.377,178.230 399.024 C 178.576 399.451,178.711 399.530,178.530 399.200 C 178.348 398.870,178.102 395.540,177.981 391.800 L 177.763 385.000 177.681 391.624 M157.751 390.800 C 157.751 393.330,157.816 394.365,157.896 393.100 C 157.975 391.835,157.975 389.765,157.896 388.500 C 157.816 387.235,157.751 388.270,157.751 390.800 " stroke="none" fill="#fcbc78" fill-rule="evenodd"></path><path id="path4" d="M202.200 53.836 C 202.640 53.952,203.536 54.221,204.191 54.434 C 205.032 54.708,205.257 54.697,204.956 54.396 C 204.722 54.162,203.826 53.893,202.965 53.798 C 202.104 53.703,201.760 53.720,202.200 53.836 M195.561 58.700 C 192.957 61.406,189.182 65.785,187.027 68.600 C 185.036 71.201,187.020 69.069,190.400 64.973 C 191.830 63.241,194.147 60.603,195.548 59.112 C 196.950 57.620,198.024 56.400,197.936 56.400 C 197.847 56.400,196.779 57.435,195.561 58.700 M209.000 58.400 C 210.083 59.500,211.060 60.400,211.170 60.400 C 211.280 60.400,210.483 59.500,209.400 58.400 C 208.317 57.300,207.340 56.400,207.230 56.400 C 207.120 56.400,207.917 57.300,209.000 58.400 M213.491 63.400 C 214.795 64.940,217.257 68.045,218.963 70.300 C 220.668 72.555,222.167 74.400,222.294 74.400 C 222.420 74.400,222.258 74.085,221.933 73.700 C 221.608 73.315,220.072 71.290,218.520 69.200 C 216.968 67.110,214.668 64.320,213.408 63.000 L 211.119 60.600 213.491 63.400 M184.604 71.700 C 184.255 72.195,182.982 74.004,181.775 75.721 C 180.567 77.438,178.656 80.318,177.529 82.121 C 176.401 83.924,175.215 85.805,174.893 86.300 C 174.571 86.795,174.406 87.200,174.527 87.200 C 174.647 87.200,176.024 85.175,177.586 82.700 C 179.149 80.225,181.605 76.535,183.045 74.500 C 184.484 72.465,185.567 70.800,185.450 70.800 C 185.333 70.800,184.952 71.205,184.604 71.700 M223.816 77.000 C 225.204 79.266,226.309 80.723,225.940 79.800 C 225.554 78.833,224.123 76.604,223.273 75.645 C 222.720 75.021,222.938 75.566,223.816 77.000 M227.455 82.500 C 228.923 84.926,230.000 86.498,230.000 86.213 C 230.000 85.802,227.595 82.000,227.335 82.000 C 227.235 82.000,227.289 82.225,227.455 82.500 M230.349 87.400 C 230.565 87.840,231.034 88.560,231.393 89.000 L 232.044 89.800 231.651 89.000 C 231.435 88.560,230.966 87.840,230.607 87.400 L 229.956 86.600 230.349 87.400 M172.909 89.700 C 172.302 90.855,171.746 91.980,171.673 92.200 C 171.459 92.853,173.832 89.063,174.115 88.300 C 174.635 86.898,173.987 87.651,172.909 89.700 M232.433 91.100 C 232.648 91.705,233.182 92.650,233.621 93.200 C 234.242 93.981,234.191 93.739,233.388 92.100 C 232.273 89.826,231.806 89.337,232.433 91.100 M234.400 94.462 C 234.400 94.902,236.785 99.543,237.116 99.748 C 237.312 99.869,236.855 98.761,236.100 97.284 C 234.757 94.659,234.400 94.067,234.400 94.462 M169.578 95.858 C 169.357 96.439,169.064 97.097,168.926 97.319 C 168.789 97.542,168.866 97.606,169.099 97.463 C 169.539 97.190,170.500 94.800,170.169 94.800 C 170.065 94.800,169.799 95.276,169.578 95.858 M167.335 100.300 C 166.992 101.125,166.441 102.340,166.110 103.000 C 165.779 103.660,165.700 104.020,165.933 103.800 C 166.453 103.310,168.475 98.800,168.175 98.800 C 168.056 98.800,167.678 99.475,167.335 100.300 M237.612 100.634 C 237.605 100.873,238.198 102.313,238.929 103.834 C 239.660 105.355,240.768 107.817,241.391 109.305 C 242.014 110.792,242.590 111.943,242.671 111.862 C 242.831 111.702,240.843 106.979,238.859 102.800 C 238.179 101.370,237.618 100.395,237.612 100.634 M165.115 105.010 C 164.992 105.445,164.769 106.160,164.620 106.600 C 164.471 107.040,164.642 106.894,165.000 106.276 C 165.358 105.658,165.581 104.942,165.495 104.686 C 165.410 104.430,165.239 104.576,165.115 105.010 M162.444 111.244 C 162.198 111.951,162.066 112.600,162.152 112.685 C 162.238 112.771,162.509 112.262,162.756 111.556 C 163.002 110.849,163.134 110.200,163.048 110.115 C 162.962 110.029,162.691 110.538,162.444 111.244 M242.951 113.000 C 243.424 114.360,246.073 121.355,246.436 122.200 C 246.682 122.773,246.709 122.660,246.533 121.800 C 246.262 120.477,243.264 112.718,242.901 112.400 C 242.775 112.290,242.798 112.560,242.951 113.000 M161.244 114.100 C 160.610 115.793,160.346 116.800,160.535 116.800 C 160.640 116.800,161.001 115.990,161.338 115.000 C 161.954 113.191,161.873 112.417,161.244 114.100 M159.558 118.300 C 158.418 121.270,157.127 125.260,157.262 125.395 C 157.345 125.479,158.069 123.669,158.870 121.374 C 160.158 117.680,160.666 115.412,159.558 118.300 M247.234 124.400 C 247.246 124.730,247.411 125.360,247.600 125.800 L 247.944 126.600 247.966 125.800 C 247.978 125.360,247.813 124.730,247.600 124.400 C 247.255 123.867,247.215 123.867,247.234 124.400 M156.002 128.500 C 155.766 129.435,155.399 130.613,155.186 131.119 C 154.974 131.624,154.806 132.344,154.814 132.719 C 154.832 133.532,156.155 129.953,156.522 128.100 C 156.898 126.206,156.505 126.508,156.002 128.500 M248.595 129.200 C 248.754 129.970,249.039 130.765,249.228 130.966 C 249.417 131.167,249.379 130.627,249.144 129.766 C 248.596 127.759,248.218 127.369,248.595 129.200 M249.657 132.200 C 249.661 133.034,250.721 136.100,250.763 135.400 C 250.777 135.180,250.533 134.190,250.221 133.200 C 249.909 132.210,249.655 131.760,249.657 132.200 M154.249 134.215 C 154.112 134.573,154.015 135.166,154.034 135.533 C 154.053 135.900,154.227 135.669,154.421 135.020 C 154.798 133.758,154.665 133.133,154.249 134.215 M250.838 136.400 C 250.795 137.169,251.610 140.124,251.810 139.924 C 251.893 139.840,251.716 138.879,251.416 137.786 C 251.117 136.694,250.856 136.070,250.838 136.400 M152.862 139.662 C 152.600 140.794,152.459 141.793,152.548 141.881 C 152.637 141.970,152.930 141.124,153.200 140.000 C 153.470 138.876,153.611 137.877,153.513 137.780 C 153.416 137.683,153.123 138.530,152.862 139.662 M200.500 142.694 C 201.545 142.776,203.255 142.776,204.300 142.694 C 205.345 142.612,204.490 142.544,202.400 142.544 C 200.310 142.544,199.455 142.612,200.500 142.694 M207.200 143.200 C 208.568 143.638,209.619 143.638,208.600 143.200 C 208.160 143.011,207.440 142.862,207.000 142.868 C 206.357 142.877,206.396 142.943,207.200 143.200 M252.800 144.776 C 252.800 145.423,252.942 146.041,253.116 146.148 C 253.290 146.256,253.361 145.727,253.273 144.972 C 253.076 143.291,252.800 143.177,252.800 144.776 M213.172 145.404 C 214.586 146.166,215.805 146.729,215.879 146.654 C 216.050 146.484,211.410 143.997,210.944 144.009 C 210.755 144.014,211.757 144.642,213.172 145.404 M191.300 145.212 C 190.805 145.411,190.400 145.670,190.400 145.787 C 190.400 146.175,191.037 146.008,191.824 145.413 C 192.708 144.743,192.585 144.696,191.300 145.212 M187.081 148.565 C 184.780 150.810,183.340 152.845,182.317 155.300 C 181.671 156.852,182.410 155.860,183.470 153.753 C 184.111 152.478,185.795 150.316,187.364 148.753 C 188.884 147.239,190.033 146.000,189.919 146.000 C 189.804 146.000,188.527 147.154,187.081 148.565 M253.701 148.200 C 253.705 149.080,253.787 149.393,253.883 148.895 C 253.979 148.398,253.975 147.678,253.875 147.295 C 253.775 146.913,253.696 147.320,253.701 148.200 M217.983 148.939 C 218.964 149.963,219.833 150.800,219.914 150.800 C 220.234 150.800,218.140 148.489,217.200 147.806 C 216.650 147.406,217.002 147.916,217.983 148.939 M150.249 151.015 C 150.112 151.373,150.015 151.966,150.034 152.333 C 150.053 152.700,150.227 152.469,150.421 151.820 C 150.798 150.558,150.665 149.933,150.249 151.015 M220.490 151.400 C 221.011 152.785,223.582 157.615,223.364 156.800 C 223.077 155.728,221.519 152.586,220.786 151.600 C 220.540 151.270,220.407 151.180,220.490 151.400 M255.046 155.600 C 255.175 156.810,255.421 157.949,255.592 158.131 C 255.762 158.313,255.736 157.503,255.532 156.331 C 255.016 153.355,254.765 152.979,255.046 155.600 M149.246 155.667 C 149.221 156.034,149.096 156.664,148.970 157.067 C 148.752 157.762,148.763 157.763,149.197 157.087 C 149.448 156.696,149.573 156.066,149.473 155.687 C 149.311 155.068,149.288 155.066,149.246 155.667 M181.233 158.233 C 180.975 159.259,180.839 160.172,180.931 160.264 C 181.022 160.356,181.309 159.592,181.567 158.567 C 181.825 157.541,181.961 156.628,181.869 156.536 C 181.778 156.444,181.491 157.208,181.233 158.233 M148.649 158.615 C 148.512 158.973,148.424 159.926,148.453 160.733 C 148.501 162.044,148.538 161.987,148.795 160.200 C 149.103 158.071,149.055 157.558,148.649 158.615 M223.862 159.400 C 223.996 160.280,224.172 161.075,224.253 161.167 C 224.556 161.510,224.329 159.368,223.981 158.600 C 223.729 158.042,223.693 158.285,223.862 159.400 M256.209 162.400 C 256.961 169.798,257.347 172.681,257.655 173.200 C 257.906 173.624,257.953 173.506,257.813 172.800 C 257.703 172.250,257.418 170.000,257.179 167.800 C 256.940 165.600,256.583 163.080,256.385 162.200 L 256.026 160.600 256.209 162.400 M224.534 164.400 C 224.534 166.050,224.605 166.725,224.691 165.900 C 224.778 165.075,224.778 163.725,224.691 162.900 C 224.605 162.075,224.534 162.750,224.534 164.400 M147.701 166.200 C 147.705 167.080,147.787 167.393,147.883 166.895 C 147.979 166.398,147.975 165.678,147.875 165.295 C 147.775 164.913,147.696 165.320,147.701 166.200 M147.293 169.600 C 147.293 170.370,147.375 170.685,147.476 170.300 C 147.576 169.915,147.576 169.285,147.476 168.900 C 147.375 168.515,147.293 168.830,147.293 169.600 M181.256 170.800 C 181.256 171.130,181.411 171.760,181.600 172.200 C 181.817 172.704,181.944 172.778,181.944 172.400 C 181.944 172.070,181.789 171.440,181.600 171.000 C 181.383 170.496,181.256 170.422,181.256 170.800 M146.914 173.000 C 146.917 174.100,146.995 174.503,147.087 173.895 C 147.179 173.286,147.177 172.386,147.082 171.895 C 146.987 171.403,146.911 171.900,146.914 173.000 M183.277 175.695 C 185.210 179.340,194.000 187.014,194.000 185.058 C 194.000 184.954,192.785 184.190,191.301 183.360 C 187.967 181.495,185.390 178.898,183.668 175.667 C 182.945 174.310,182.263 173.200,182.153 173.200 C 182.043 173.200,182.549 174.323,183.277 175.695 M257.731 177.000 C 257.733 178.540,257.805 179.121,257.892 178.291 C 257.979 177.461,257.977 176.201,257.889 175.491 C 257.800 174.781,257.729 175.460,257.731 177.000 M217.756 180.351 C 216.412 181.629,214.477 183.078,213.456 183.573 C 211.264 184.634,210.976 185.072,213.035 184.211 C 214.705 183.513,216.751 181.938,218.981 179.634 C 221.287 177.251,220.585 177.662,217.756 180.351 M146.144 184.000 C 146.144 186.090,146.212 186.945,146.294 185.900 C 146.376 184.855,146.376 183.145,146.294 182.100 C 146.212 181.055,146.144 181.910,146.144 184.000 M258.134 183.200 C 258.134 184.850,258.205 185.525,258.291 184.700 C 258.378 183.875,258.378 182.525,258.291 181.700 C 258.205 180.875,258.134 181.550,258.134 183.200 M207.400 185.809 C 206.266 186.101,205.833 186.327,206.400 186.331 C 206.950 186.335,208.120 186.101,209.000 185.811 C 211.042 185.138,210.016 185.137,207.400 185.809 M197.152 186.112 C 197.345 186.305,198.019 186.398,198.651 186.319 C 199.709 186.187,199.681 186.159,198.300 185.968 C 197.440 185.849,196.950 185.910,197.152 186.112 M201.100 186.689 C 201.815 186.778,202.985 186.778,203.700 186.689 C 204.415 186.601,203.830 186.528,202.400 186.528 C 200.970 186.528,200.385 186.601,201.100 186.689 M258.446 190.676 C 258.421 191.818,258.538 192.838,258.707 192.943 C 258.876 193.047,258.957 192.383,258.886 191.466 C 258.679 188.775,258.496 188.447,258.446 190.676 M145.600 190.787 C 145.600 191.643,145.324 192.119,144.613 192.491 C 141.415 194.167,131.020 204.434,127.505 209.389 C 125.158 212.698,125.964 212.054,128.618 208.500 C 131.589 204.522,139.365 196.760,143.100 194.044 C 145.687 192.163,147.245 189.600,145.800 189.600 C 145.690 189.600,145.600 190.134,145.600 190.787 M259.755 193.528 C 259.917 193.790,261.151 194.752,262.497 195.666 C 265.962 198.019,274.598 206.756,277.556 210.900 C 280.647 215.230,281.217 215.525,278.329 211.300 C 275.023 206.464,257.224 189.433,259.755 193.528 M124.800 213.200 C 124.330 213.860,124.036 214.400,124.146 214.400 C 124.256 214.400,124.730 213.860,125.200 213.200 C 125.670 212.540,125.964 212.000,125.854 212.000 C 125.744 212.000,125.270 212.540,124.800 213.200 M282.008 217.430 C 282.237 218.073,282.784 219.050,283.225 219.600 C 283.837 220.365,283.786 220.136,283.005 218.625 C 281.775 216.246,281.449 215.855,282.008 217.430 M121.113 219.300 C 119.441 221.897,114.851 233.384,115.304 233.837 C 115.388 233.921,116.045 232.250,116.764 230.125 C 117.483 227.999,118.937 224.491,119.996 222.330 C 121.909 218.423,122.220 217.579,121.113 219.300 M285.007 223.079 C 285.607 224.514,286.000 225.162,286.000 224.716 C 286.000 224.284,284.785 221.600,284.589 221.600 C 284.479 221.600,284.667 222.266,285.007 223.079 M289.341 234.057 C 289.451 234.419,289.851 236.268,290.228 238.167 C 290.605 240.066,290.993 241.540,291.090 241.443 C 291.346 241.187,289.987 234.709,289.528 234.000 C 289.198 233.491,289.170 233.499,289.341 234.057 M113.829 238.229 C 113.681 238.815,113.651 239.384,113.761 239.494 C 113.871 239.604,114.081 239.215,114.229 238.629 C 114.376 238.042,114.406 237.473,114.296 237.363 C 114.186 237.253,113.976 237.642,113.829 238.229 M113.293 242.400 C 113.293 243.170,113.375 243.485,113.476 243.100 C 113.576 242.715,113.576 242.085,113.476 241.700 C 113.375 241.315,113.293 241.630,113.293 242.400 M291.301 243.400 C 291.305 244.280,291.387 244.593,291.483 244.095 C 291.579 243.598,291.575 242.878,291.475 242.495 C 291.375 242.113,291.296 242.520,291.301 243.400 M112.901 245.400 C 112.905 246.280,112.987 246.593,113.083 246.095 C 113.179 245.598,113.175 244.878,113.075 244.495 C 112.975 244.113,112.896 244.520,112.901 245.400 M146.966 247.642 C 144.565 249.307,143.244 250.416,144.400 249.795 C 145.062 249.440,148.778 246.854,149.380 246.331 C 150.363 245.475,149.100 246.161,146.966 247.642 M252.406 246.700 C 252.411 247.215,252.498 247.264,252.738 246.886 C 252.933 246.579,253.359 246.486,253.798 246.654 C 254.305 246.849,254.442 246.791,254.242 246.468 C 253.784 245.727,252.399 245.902,252.406 246.700 M152.000 246.562 C 152.000 248.246,155.317 259.397,156.053 260.187 C 156.251 260.399,155.966 259.319,155.420 257.787 C 154.874 256.254,153.954 253.110,153.376 250.800 C 152.432 247.030,152.000 245.701,152.000 246.562 M112.423 252.655 C 112.393 255.686,112.457 258.077,112.565 257.968 C 112.830 257.704,112.941 247.608,112.682 247.349 C 112.570 247.237,112.454 249.625,112.423 252.655 M252.093 248.800 C 252.093 249.570,252.175 249.885,252.276 249.500 C 252.376 249.115,252.376 248.485,252.276 248.100 C 252.175 247.715,252.093 248.030,252.093 248.800 M256.000 247.746 C 256.000 247.856,256.540 248.330,257.200 248.800 C 257.860 249.270,258.400 249.564,258.400 249.454 C 258.400 249.344,257.860 248.870,257.200 248.400 C 256.540 247.930,256.000 247.636,256.000 247.746 M259.179 250.175 C 259.487 250.546,260.714 251.497,261.906 252.288 C 265.155 254.445,272.536 262.038,276.108 266.900 C 277.846 269.265,279.364 271.200,279.481 271.200 C 279.599 271.200,279.250 270.615,278.706 269.900 C 278.161 269.185,276.925 267.438,275.958 266.017 C 273.677 262.667,264.923 253.907,261.382 251.432 C 259.863 250.370,258.872 249.804,259.179 250.175 M140.800 252.250 C 133.269 258.702,126.210 267.113,122.212 274.400 C 121.365 275.943,122.913 273.833,125.587 269.800 C 130.282 262.717,133.604 259.054,142.400 251.264 C 143.170 250.581,143.710 250.023,143.600 250.023 C 143.490 250.023,142.230 251.025,140.800 252.250 M251.249 251.800 C 251.216 252.240,251.096 253.050,250.983 253.600 L 250.777 254.600 251.206 253.619 C 251.442 253.079,251.561 252.269,251.472 251.819 C 251.313 251.021,251.307 251.021,251.249 251.800 M291.772 254.571 C 291.637 255.105,291.683 255.820,291.873 256.159 C 292.112 256.586,292.218 256.288,292.218 255.188 C 292.218 253.355,292.113 253.210,291.772 254.571 M250.036 256.436 C 249.766 257.339,249.618 258.152,249.708 258.242 C 249.798 258.332,250.093 257.666,250.364 256.764 C 250.634 255.861,250.782 255.048,250.692 254.958 C 250.602 254.868,250.307 255.534,250.036 256.436 M291.453 259.636 C 291.314 260.331,291.222 261.463,291.249 262.150 C 291.278 262.894,291.438 262.440,291.643 261.028 C 292.011 258.504,291.876 257.518,291.453 259.636 M112.901 260.200 C 112.905 261.080,112.987 261.393,113.083 260.895 C 113.179 260.398,113.175 259.678,113.075 259.295 C 112.975 258.913,112.896 259.320,112.901 260.200 M248.293 261.307 C 247.939 262.348,247.725 263.200,247.819 263.200 C 248.125 263.200,249.223 260.268,249.079 259.836 C 249.001 259.604,248.648 260.267,248.293 261.307 M156.630 262.000 C 157.379 264.869,159.938 267.236,162.200 267.153 C 163.333 267.110,163.318 267.092,161.934 266.823 C 159.730 266.393,158.587 265.454,157.423 263.116 C 156.843 261.952,156.486 261.450,156.630 262.000 M246.707 264.833 C 246.334 265.483,245.617 266.180,245.114 266.382 C 244.470 266.641,244.398 266.757,244.871 266.775 C 245.611 266.803,246.572 265.973,247.235 264.735 C 247.925 263.446,247.453 263.534,246.707 264.833 M113.848 266.200 C 113.973 267.300,114.241 268.470,114.444 268.800 C 114.835 269.440,114.752 268.866,114.008 265.800 C 113.632 264.247,113.627 264.259,113.848 266.200 M289.953 268.100 C 289.611 269.695,288.773 272.690,288.090 274.756 C 287.407 276.821,286.999 278.351,287.183 278.156 C 288.055 277.228,291.351 265.200,290.733 265.200 C 290.647 265.200,290.296 266.505,289.953 268.100 M166.887 267.146 C 166.661 267.286,167.702 267.400,169.200 267.400 C 170.698 267.400,171.739 267.286,171.513 267.146 C 171.287 267.007,170.246 266.892,169.200 266.892 C 168.154 266.892,167.113 267.007,166.887 267.146 M175.233 266.944 C 175.325 267.023,175.940 267.208,176.600 267.356 C 177.476 267.552,177.638 267.515,177.200 267.218 C 176.660 266.853,174.832 266.598,175.233 266.944 M180.434 267.179 C 180.214 267.315,181.637 267.414,183.597 267.400 C 185.556 267.386,187.245 267.289,187.349 267.185 C 187.634 266.899,180.896 266.894,180.434 267.179 M188.400 267.218 C 187.962 267.515,188.124 267.552,189.000 267.356 C 190.471 267.027,190.790 266.798,189.767 266.806 C 189.345 266.809,188.730 266.995,188.400 267.218 M194.000 267.218 C 193.562 267.515,193.724 267.552,194.600 267.356 C 196.071 267.027,196.390 266.798,195.367 266.806 C 194.945 266.809,194.330 266.995,194.000 267.218 M199.687 267.146 C 199.461 267.286,200.502 267.400,202.000 267.400 C 203.498 267.400,204.539 267.286,204.313 267.146 C 204.087 267.007,203.046 266.892,202.000 266.892 C 200.954 266.892,199.913 267.007,199.687 267.146 M218.887 267.146 C 218.661 267.286,219.702 267.400,221.200 267.400 C 222.698 267.400,223.739 267.286,223.513 267.146 C 223.287 267.007,222.246 266.892,221.200 266.892 C 220.154 266.892,219.113 267.007,218.887 267.146 M227.233 266.944 C 227.325 267.023,227.940 267.208,228.600 267.356 C 229.476 267.552,229.638 267.515,229.200 267.218 C 228.660 266.853,226.832 266.598,227.233 266.944 M232.400 267.218 C 231.962 267.515,232.124 267.552,233.000 267.356 C 234.471 267.027,234.790 266.798,233.767 266.806 C 233.345 266.809,232.730 266.995,232.400 267.218 M238.087 267.146 C 237.861 267.286,238.902 267.400,240.400 267.400 C 241.898 267.400,242.939 267.286,242.713 267.146 C 242.487 267.007,241.446 266.892,240.400 266.892 C 239.354 266.892,238.313 267.007,238.087 267.146 M114.806 270.233 C 114.809 270.655,114.995 271.270,115.218 271.600 C 115.515 272.038,115.552 271.876,115.356 271.000 C 115.027 269.529,114.798 269.210,114.806 270.233 M280.779 273.800 C 281.499 275.120,282.275 276.380,282.504 276.600 C 282.733 276.820,282.326 275.920,281.600 274.600 C 280.874 273.280,280.098 272.020,279.875 271.800 C 279.652 271.580,280.059 272.480,280.779 273.800 M115.646 272.966 C 115.578 274.101,118.043 280.042,118.685 280.288 C 119.228 280.496,120.362 279.378,120.387 278.611 C 120.394 278.397,120.120 278.622,119.777 279.111 C 119.435 279.600,119.008 280.000,118.828 280.000 C 118.515 280.000,116.263 274.656,115.878 273.000 C 115.704 272.250,115.690 272.248,115.646 272.966 M121.078 276.605 C 120.712 277.372,120.495 278.000,120.596 278.000 C 120.870 278.000,122.084 275.551,121.901 275.368 C 121.814 275.281,121.444 275.838,121.078 276.605 M282.819 277.316 C 282.778 277.997,284.470 280.852,285.045 281.073 C 285.783 281.356,286.225 280.929,286.570 279.600 C 286.821 278.632,286.809 278.635,286.202 279.700 C 285.336 281.217,284.968 281.093,283.826 278.900 C 283.282 277.855,282.829 277.142,282.819 277.316 M166.316 289.097 C 167.699 289.175,169.859 289.174,171.116 289.095 C 172.372 289.016,171.240 288.952,168.600 288.953 C 165.960 288.953,164.932 289.018,166.316 289.097 M200.300 289.096 C 201.675 289.174,203.925 289.174,205.300 289.096 C 206.675 289.018,205.550 288.954,202.800 288.954 C 200.050 288.954,198.925 289.018,200.300 289.096 M210.320 289.280 C 210.627 289.587,210.830 291.425,210.884 294.380 L 210.969 299.000 211.101 294.800 C 211.244 290.263,211.052 288.800,210.312 288.800 C 209.953 288.800,209.955 288.915,210.320 289.280 M234.316 289.097 C 235.699 289.175,237.859 289.174,239.116 289.095 C 240.372 289.016,239.240 288.952,236.600 288.953 C 233.960 288.953,232.932 289.018,234.316 289.097 M244.799 296.519 L 244.998 304.200 245.108 296.829 C 245.169 292.775,245.079 289.319,244.909 289.148 C 244.739 288.978,244.690 292.295,244.799 296.519 M155.776 289.719 C 155.666 290.005,155.632 292.750,155.700 295.819 L 155.825 301.400 155.912 295.523 L 156.000 289.646 157.700 289.493 L 159.400 289.340 157.687 289.270 C 156.598 289.225,155.902 289.389,155.776 289.719 M190.182 289.702 C 190.076 289.979,190.039 296.504,190.100 304.202 L 190.211 318.200 190.305 303.923 L 190.400 289.646 192.100 289.493 L 193.800 289.340 192.087 289.270 C 191.026 289.227,190.302 289.391,190.182 289.702 M224.177 289.715 C 224.068 289.999,224.034 293.194,224.100 296.815 L 224.221 303.400 224.311 296.524 L 224.400 289.648 225.900 289.491 L 227.400 289.334 225.887 289.267 C 224.969 289.226,224.297 289.402,224.177 289.715 M176.981 304.800 C 176.981 313.050,177.034 316.425,177.099 312.300 C 177.164 308.175,177.164 301.425,177.099 297.300 C 177.034 293.175,176.981 296.550,176.981 304.800 M211.382 319.600 C 211.382 328.510,211.435 332.155,211.500 327.700 C 211.564 323.245,211.564 315.955,211.500 311.500 C 211.435 307.045,211.382 310.690,211.382 319.600 M156.164 312.600 C 156.163 316.340,156.223 317.924,156.297 316.120 C 156.371 314.315,156.372 311.255,156.298 309.320 C 156.225 307.384,156.164 308.860,156.164 312.600 M224.585 329.200 C 224.585 339.430,224.636 343.615,224.700 338.500 C 224.763 333.385,224.763 325.015,224.700 319.900 C 224.636 314.785,224.585 318.970,224.585 329.200 M245.365 318.200 C 245.366 322.160,245.426 323.726,245.498 321.680 C 245.571 319.634,245.571 316.394,245.498 314.480 C 245.424 312.566,245.365 314.240,245.365 318.200 M190.562 329.000 C 190.562 332.520,190.624 333.906,190.698 332.081 C 190.772 330.256,190.772 327.376,190.697 325.681 C 190.622 323.986,190.561 325.480,190.562 329.000 M156.583 341.600 C 156.583 350.730,156.635 354.465,156.700 349.900 C 156.764 345.335,156.764 337.865,156.700 333.300 C 156.635 328.735,156.583 332.470,156.583 341.600 M177.364 332.200 C 177.363 335.940,177.423 337.524,177.497 335.720 C 177.571 333.915,177.572 330.855,177.498 328.920 C 177.425 326.984,177.364 328.460,177.364 332.200 M245.785 349.600 C 245.785 360.050,245.836 364.325,245.900 359.100 C 245.963 353.875,245.963 345.325,245.900 340.100 C 245.836 334.875,245.785 339.150,245.785 349.600 M190.982 356.800 C 190.982 365.490,191.035 369.045,191.100 364.700 C 191.164 360.355,191.164 353.245,191.100 348.900 C 191.035 344.555,190.982 348.110,190.982 356.800 M211.762 347.800 C 211.762 351.320,211.824 352.706,211.898 350.881 C 211.972 349.056,211.972 346.176,211.897 344.481 C 211.822 342.786,211.761 344.280,211.762 347.800 M177.783 360.000 C 177.783 369.130,177.835 372.865,177.900 368.300 C 177.964 363.735,177.964 356.265,177.900 351.700 C 177.835 347.135,177.783 350.870,177.783 360.000 M224.967 360.600 C 224.967 364.780,225.026 366.436,225.098 364.279 C 225.171 362.123,225.170 358.703,225.098 356.679 C 225.025 354.656,224.966 356.420,224.967 360.600 M212.182 374.000 C 212.182 382.910,212.235 386.555,212.300 382.100 C 212.364 377.645,212.364 370.355,212.300 365.900 C 212.235 361.445,212.182 365.090,212.182 374.000 M156.962 369.000 C 156.962 372.520,157.024 373.906,157.098 372.081 C 157.172 370.256,157.172 367.376,157.097 365.681 C 157.022 363.986,156.961 365.480,156.962 369.000 M225.377 386.600 C 225.377 393.200,225.432 395.956,225.499 392.725 C 225.566 389.493,225.566 384.093,225.499 380.725 C 225.432 377.356,225.377 380.000,225.377 386.600 M246.167 382.600 C 246.167 386.780,246.226 388.436,246.298 386.279 C 246.371 384.123,246.370 380.703,246.298 378.679 C 246.225 376.656,246.166 378.420,246.167 382.600 M191.362 383.400 C 191.362 386.920,191.424 388.306,191.498 386.481 C 191.572 384.656,191.572 381.776,191.497 380.081 C 191.422 378.386,191.361 379.880,191.362 383.400 M157.365 388.400 C 157.365 392.250,157.425 393.825,157.498 391.900 C 157.571 389.975,157.571 386.825,157.498 384.900 C 157.425 382.975,157.365 384.550,157.365 388.400 M178.162 388.600 C 178.162 392.120,178.224 393.506,178.298 391.681 C 178.372 389.856,178.372 386.976,178.297 385.281 C 178.222 383.586,178.161 385.080,178.162 388.600 M191.714 397.400 C 191.717 398.500,191.795 398.903,191.887 398.295 C 191.979 397.686,191.977 396.786,191.882 396.295 C 191.787 395.803,191.711 396.300,191.714 397.400 M212.446 397.676 C 212.421 398.708,212.542 399.641,212.716 399.748 C 212.890 399.856,212.970 399.282,212.893 398.472 C 212.659 395.998,212.495 395.707,212.446 397.676 " stroke="none" fill="#fc9c3a" fill-rule="evenodd"></path></g></svg>